<svg version="1.2" xmlns="http://www.w3.org/2000/svg" viewBox="0 0 150 150" width="150" height="150"><style>.a{fill:#fff}.b{fill:#f7acaf}.c{fill:#eb2e38}</style><path class="a" d="m30.8 70.3c2.9 6.3 9.6 10.8 17.5 10.8q0.3 0 0.6 0 0.3-0.1 0.6-0.1 0.3 0 0.6 0c3.1-0.3 6-1.3 8.5-2.8l7.7 1-1.7-6.7c1.7-2.7 2.7-5.8 2.7-9.1 0-9-7.2-16.4-16.6-17.5q-0.7-0.1-1.5-0.1-0.5-0.1-0.9-0.1-0.6 0-1.2 0.1v-0.1c6.6-4.4 14.7-6.9 23.5-6.9 22.3 0 40.4 16.8 40.4 37.5q0 0.9-0.1 1.8c-2.8-5.2-8.2-9-14.6-9.8q-0.2 0-0.4 0-0.2-0.1-0.5-0.1-0.2 0-0.4 0-0.3 0-0.5 0-0.4-0.1-0.7-0.1 0 0-0.1 0-0.3 0-0.6 0-0.2 0-0.3 0.1-0.2 0-0.3 0-0.4 0-0.7 0-0.3 0.1-0.6 0.1-0.3 0-0.6 0.1-0.5 0.1-1 0.2-0.4 0-0.8 0.1-0.6 0.2-1.1 0.4-0.1 0-0.1 0-0.5 0.1-0.9 0.3-0.2 0.1-0.4 0.1-0.4 0.2-0.9 0.4-0.4 0.2-0.9 0.4-0.6 0.3-1.1 0.7l-7.7-1 1.7 6.7q-0.1 0.2-0.3 0.5-0.1 0.2-0.3 0.5 0 0 0 0.1-0.1 0.1-0.2 0.3 0 0.1 0 0.1 0 0-0.1 0-0.2 0.5-0.4 0.9-0.1 0.2-0.1 0.4-0.1 0.1-0.1 0.2 0 0 0 0-0.2 0.4-0.3 0.7-0.1 0.3-0.2 0.6 0 0.2-0.1 0.4-0.1 0.4-0.2 0.8 0 0 0 0-0.1 0.4-0.1 0.8-0.1 0.3-0.1 0.6-0.1 0.7-0.2 1.3 0 0.4 0 0.8 0 0 0 0.1 0 0.4 0 0.8 0.1 0.4 0.1 0.9 0.1 0.5 0.1 0.9c0.3 1.9 1 3.7 1.9 5.4q0 0 0 0.1 0.2 0.3 0.4 0.7c2.9 4.6 8 8 14 8.7q0.1 0 0.2 0 0.3 0.1 0.7 0.1h0.4q0.6 0.1 1.2 0 0.1 0 0.1 0 0.4 0 0.8 0 0.2 0 0.4 0l1.8-0.2q0.5 0 0.9-0.1 0.8-0.2 1.5-0.4c-7.3 6.8-17.4 11-28.6 11-22.4 0-40.5-16.8-40.5-37.4q0-3.1 0.5-5.9z"/><ellipse class="a" cx="48.3" cy="63.3" rx="2.3" ry="2.1"/><ellipse class="a" cx="39.9" cy="63.3" rx="2.3" ry="2.1"/><ellipse class="a" cx="56.7" cy="63.3" rx="2.3" ry="2.1"/><ellipse class="a" cx="102.2" cy="85.7" rx="2.3" ry="2.1"/><ellipse class="a" cx="93.8" cy="85.7" rx="2.3" ry="2.1"/><ellipse class="a" cx="85.5" cy="85.7" rx="2.3" ry="2.1"/><path fill-rule="evenodd" class="a" d="m98.6 102.9c-5.7-1.5-10.4-5.3-12.7-10.4v-0.1q-1-2.2-1.3-4.7 0.4 0.2 0.9 0.2c1.2 0 2.3-1 2.3-2.2 0-1.2-1.1-2.1-2.3-2.1q-0.5 0-0.9 0.1c0.9-7.2 6.5-13.2 14-15q-1.1-0.2-2.3-0.4c6.4 0.8 11.8 4.6 14.6 9.8q0.2 0.5 0.4 1v0.1c1 2 1.5 4.3 1.5 6.7 0 8-5.8 14.7-13.6 16.8q-0.7 0.2-1.5 0.4 0.5-0.1 0.9-0.2zm5.9-17.2c0-1.2-1-2.1-2.3-2.1-1.3 0-2.3 0.9-2.3 2.1 0 1.2 1 2.2 2.3 2.2 1.3 0 2.3-1 2.3-2.2zm-8.4 0c0-1.2-1-2.1-2.3-2.1-1.3 0-2.3 0.9-2.3 2.1 0 1.2 1 2.2 2.3 2.2 1.3 0 2.3-1 2.3-2.2z"/><path fill-rule="evenodd" class="a" d="m67.3 63.4c0 3.3-1 6.4-2.7 9.1l1.7 6.7-7.7-1c-2.5 1.5-5.4 2.5-8.5 2.8q1.6-0.2 3-0.5c-5.7-1.4-10.4-5.3-12.7-10.4v-0.1q-1-2.2-1.3-4.7 0.4 0.2 0.8 0.2c1.3 0 2.3-1 2.3-2.2 0-1.2-1-2.1-2.3-2.1q-0.4 0-0.8 0.1c0.9-7.2 6.5-13.1 14-15q-1.2-0.2-2.4-0.4c9.4 1.1 16.6 8.5 16.6 17.5zm-8.3-0.1c0-1.2-1.1-2.1-2.3-2.1-1.3 0-2.4 0.9-2.4 2.1 0 1.2 1.1 2.2 2.4 2.2 1.2 0 2.3-1 2.3-2.2zm-8.4 0c0-1.2-1-2.1-2.3-2.1-1.3 0-2.3 0.9-2.3 2.1 0 1.2 1 2.2 2.3 2.2 1.3 0 2.3-1 2.3-2.2z"/><path class="b" d="m122.5 51.3c-0.5 0-0.9-0.4-0.9-0.8 0-0.5 0.4-0.9 0.9-0.9 0.5 0 1 0.4 1 0.9 0 0.4-0.5 0.8-1 0.8z"/><path class="b" d="m122.5 89.2c-0.5 0-0.9-0.4-0.9-0.9 0-0.4 0.4-0.8 0.9-0.8 0.5 0 1 0.4 1 0.8 0 0.5-0.5 0.9-1 0.9z"/><path class="b" d="m96.8 103.2l-1.8 0.2h0.1q0.9-0.1 1.7-0.2z"/><path class="b" d="m95.9 68.3q-0.2-0.1-0.5-0.1 0.3 0 0.5 0.1z"/><path class="b" d="m76.8 93.8c-0.9-1.7-1.5-3.5-1.9-5.4q0-0.4-0.1-0.9 0 0 0 0 0-0.4-0.1-0.9 0-0.4 0-0.8 0-0.1 0-0.1 0-0.1 0-0.2 0-0.3 0-0.6 0.1-0.7 0.2-1.3 0-0.3 0.1-0.6 0-0.4 0.1-0.8 0 0 0 0 0.1-0.4 0.2-0.8 0.1-0.2 0.1-0.4 0.1-0.3 0.2-0.6 0.2-0.4 0.4-0.9 0-0.2 0.1-0.4 0.2-0.4 0.4-0.9 0.2-0.2 0.3-0.4 0-0.1 0-0.1 0.2-0.3 0.3-0.5 0.2-0.3 0.3-0.5l-1.7-6.7 7.7 1q0.5-0.4 1.1-0.7 0.5-0.2 0.9-0.4 0.5-0.2 0.9-0.4 0.2 0 0.4-0.1 0.4-0.2 0.9-0.3 0 0 0.1 0 0.5-0.2 1.1-0.4 0.4-0.1 0.8-0.1 0.5-0.1 1-0.2 0.3-0.1 0.6-0.1 0.3 0 0.6-0.1 0.3 0 0.6 0h0.1q0.1 0 0.3 0 0.1-0.1 0.3-0.1 0.3 0 0.6 0 0.1 0 0.1 0 0.3 0 0.7 0.1 0.2 0 0.5 0 0.2 0 0.4 0 0.3 0 0.5 0.1 0.2 0 0.4 0 1.2 0.2 2.3 0.4c-7.5 1.8-13.1 7.8-14 15-0.9 0.4-1.4 1.1-1.4 2 0 0.9 0.5 1.7 1.4 2q0.3 2.5 1.3 4.7v0.1c2.3 5.1 7 8.9 12.7 10.4q-0.4 0.1-0.9 0.2-0.4 0.1-0.9 0.1-0.8 0.1-1.7 0.2h-0.1q-0.2 0-0.4 0-0.4 0-0.8 0 0 0-0.1 0-0.6 0.1-1.2 0-0.2 0-0.4 0-0.4 0-0.7-0.1-0.1 0-0.2 0-1.1-0.2-2.2-0.4-0.8-0.2-1.7-0.5-0.1 0-0.2-0.1-0.8-0.3-1.7-0.6-0.7-0.4-1.4-0.8-0.2-0.1-0.3-0.2-0.5-0.2-1-0.6-0.2-0.1-0.4-0.2c-2.1-1.5-3.8-3.3-5.1-5.3q-0.2-0.4-0.4-0.7 0-0.1 0-0.1z"/><path class="b" d="m94.5 68.2q-0.4-0.1-0.7-0.1 0.3 0 0.7 0.1z"/><path class="b" d="m92.8 68.2q-0.2 0-0.3 0 0.1 0 0.3 0z"/><path class="b" d="m92.5 103.4h-0.4q0.2 0 0.4 0z"/><path class="b" d="m87.2 34.1c-0.5 0-0.9-0.4-0.9-0.9 0-0.4 0.4-0.8 0.9-0.8 0.6 0 1 0.4 1 0.8 0 0.5-0.4 0.9-1 0.9z"/><path class="b" d="m77.1 77.2q-0.1 0.2-0.3 0.5 0.2-0.3 0.3-0.5z"/><path class="b" d="m76.8 77.8q-0.1 0.2-0.3 0.4 0.1 0 0.1 0 0 0 0-0.1 0.1-0.2 0.2-0.3z"/><path class="b" d="m75.9 79.7q0-0.1 0.1-0.2-0.2 0.5-0.4 0.9 0.1-0.3 0.3-0.7 0 0 0 0z"/><path class="b" d="m75.6 80.4q-0.1 0.3-0.2 0.6 0.1-0.3 0.2-0.6z"/><path class="b" d="m50.7 45.9q1.2 0.2 2.4 0.4c-7.5 1.9-13.1 7.8-14 15-0.9 0.4-1.5 1.1-1.5 2 0 0.9 0.6 1.7 1.5 2q0.3 2.5 1.3 4.7v0.1c2.3 5.1 7 9 12.7 10.4q-1.4 0.3-3 0.5-0.3 0-0.6 0-0.3 0-0.6 0.1-0.3 0-0.6 0c-7.9 0-14.6-4.5-17.5-10.8q-0.1-0.1-0.1-0.2v-0.1c-1-2-1.5-4.3-1.5-6.7 0-9.3 7.8-16.9 17.7-17.5h0.1q0.1 0 0.1 0 0.6-0.1 1.2-0.1 0.4 0 0.9 0.1 0.8 0 1.5 0.1z"/><path class="b" d="m49.2 45.8q-0.5-0.1-0.9-0.1 0.4 0 0.9 0.1z"/><path class="b" d="m45.5 117.6c-0.6 0-1-0.4-1-0.8 0-0.5 0.4-0.9 1-0.9 0.5 0 0.9 0.4 0.9 0.9 0 0.4-0.4 0.8-0.9 0.8z"/><path class="b" d="m31.5 42.7c-0.5 0-0.9-0.4-0.9-0.9 0-0.4 0.4-0.8 0.9-0.8 0.5 0 1 0.4 1 0.8 0 0.5-0.5 0.9-1 0.9z"/><path class="b" d="m11.1 76.3c-0.5 0-0.9-0.4-0.9-0.9 0-0.5 0.4-0.8 0.9-0.8 0.5 0 0.9 0.3 0.9 0.8 0 0.5-0.4 0.9-0.9 0.9z"/><path class="b" d="m94.8 87.7q-0.4 0.2-0.9 0.2c-1.3 0-2.3-1-2.3-2.2 0-1.2 1-2.1 2.3-2.1q0.5 0 0.9 0.2c-0.8 0.3-1.4 1-1.4 1.9 0 0.9 0.6 1.6 1.4 2z"/><path class="b" d="m86.4 87.7q-0.4 0.2-0.9 0.2c-1.3 0-2.3-1-2.3-2.2 0-1.2 1-2.1 2.3-2.1q0.5 0 0.9 0.2c-0.8 0.3-1.4 1-1.4 1.9 0 0.9 0.6 1.6 1.4 2z"/><path class="b" d="m103.2 87.7q-0.5 0.2-1 0.2c-1.2 0-2.3-1-2.3-2.2 0-1.2 1.1-2.1 2.3-2.1q0.5 0 1 0.2c-0.9 0.3-1.4 1-1.4 1.9 0 0.9 0.5 1.6 1.4 2z"/><path class="b" d="m49.2 65.3q-0.4 0.2-0.9 0.2c-1.3 0-2.3-1-2.3-2.2 0-1.2 1-2.1 2.3-2.1q0.5 0 0.9 0.2c-0.8 0.3-1.4 1-1.4 1.9 0 0.9 0.6 1.7 1.4 2z"/><path class="b" d="m40.8 65.3q-0.4 0.2-0.9 0.2c-1.3 0-2.3-1-2.3-2.2 0-1.2 1-2.1 2.3-2.1q0.5 0 0.9 0.2c-0.8 0.3-1.4 1-1.4 1.9 0 0.9 0.6 1.7 1.4 2z"/><path class="b" d="m57.6 65.3q-0.4 0.2-0.9 0.2c-1.3 0-2.4-1-2.4-2.2 0-1.2 1.1-2.1 2.4-2.1q0.5 0 0.9 0.2c-0.8 0.3-1.4 1-1.4 1.9 0 0.9 0.6 1.7 1.4 2z"/><path class="c" d="m138.3 97.8c-0.5 0-0.9-0.4-0.9-0.9 0-0.4 0.4-0.8 0.9-0.8 0.5 0 0.9 0.4 0.9 0.8 0 0.5-0.4 0.9-0.9 0.9z"/><path class="c" d="m131.8 77.1c-0.5 0-0.9-0.3-0.9-0.8 0-0.5 0.4-0.9 0.9-0.9 0.5 0 0.9 0.4 0.9 0.9 0 0.5-0.4 0.8-0.9 0.8z"/><path class="c" d="m105.8 28.1c-0.5 0-0.9-0.4-0.9-0.9 0-0.5 0.4-0.8 0.9-0.8 0.5 0 0.9 0.3 0.9 0.8 0 0.5-0.4 0.9-0.9 0.9z"/><path class="c" d="m105.8 44.4c-0.5 0-0.9-0.4-0.9-0.8 0-0.5 0.4-0.9 0.9-0.9 0.5 0 0.9 0.4 0.9 0.9 0 0.4-0.4 0.8-0.9 0.8z"/><path class="c" d="m94.7 115c-0.5 0-1-0.4-1-0.8 0-0.5 0.5-0.9 1-0.9 0.5 0 0.9 0.4 0.9 0.9 0 0.4-0.4 0.8-0.9 0.8z"/><path class="c" d="m73.3 25.5c-0.5 0-0.9-0.4-0.9-0.9 0-0.4 0.4-0.8 0.9-0.8 0.5 0 0.9 0.4 0.9 0.8 0 0.5-0.4 0.9-0.9 0.9z"/><path class="c" d="m64 126.2c-0.5 0-0.9-0.4-0.9-0.8 0-0.5 0.4-0.9 0.9-0.9 0.5 0 1 0.4 1 0.9 0 0.4-0.5 0.8-1 0.8z"/><path class="c" d="m40.8 42.7c-0.5 0-0.9-0.4-0.9-0.9 0-0.4 0.4-0.8 0.9-0.8 0.5 0 0.9 0.4 0.9 0.8 0 0.5-0.4 0.9-0.9 0.9z"/><path class="c" d="m26 93.5c-0.6 0-1-0.4-1-0.9 0-0.4 0.4-0.8 1-0.8 0.5 0 0.9 0.4 0.9 0.8 0 0.5-0.4 0.9-0.9 0.9z"/><path class="c" d="m17.6 109c-0.5 0-0.9-0.4-0.9-0.9 0-0.4 0.4-0.8 0.9-0.8 0.5 0 0.9 0.4 0.9 0.8 0 0.5-0.4 0.9-0.9 0.9z"/><path class="c" d="m12.9 51.3c-0.6 0-1-0.4-1-0.8 0-0.5 0.4-0.9 1-0.9 0.5 0 0.9 0.4 0.9 0.9 0 0.4-0.4 0.8-0.9 0.8z"/><path fill-rule="evenodd" class="c" d="m21.3 47.9c-1 0-1.8-0.8-1.8-1.7 0-1 0.8-1.8 1.8-1.8 1 0 1.9 0.8 1.9 1.8 0 0.9-0.9 1.7-1.9 1.7zm0.9-1.7c0-0.5-0.4-0.9-0.9-0.9-0.5 0-0.9 0.4-0.9 0.9 0 0.4 0.4 0.8 0.9 0.8 0.5 0 0.9-0.4 0.9-0.8z"/><path fill-rule="evenodd" class="c" d="m39.9 30.6c-1 0-1.8-0.7-1.8-1.7 0-0.9 0.8-1.7 1.8-1.7 1 0 1.8 0.8 1.8 1.7 0 1-0.8 1.7-1.8 1.7zm-0.9-1.7c0 0.5 0.4 0.9 0.9 0.9 0.5 0 0.9-0.4 0.9-0.9 0-0.4-0.4-0.8-0.9-0.8-0.5 0-0.9 0.4-0.9 0.8z"/><path fill-rule="evenodd" class="c" d="m21.3 65.1c-1 0-1.8-0.8-1.8-1.7 0-1 0.8-1.7 1.8-1.7 1 0 1.9 0.7 1.9 1.7 0 0.9-0.9 1.7-1.9 1.7zm0.9-1.7c0-0.5-0.4-0.9-0.9-0.9-0.5 0-0.9 0.4-0.9 0.9 0 0.4 0.4 0.8 0.9 0.8 0.5 0 0.9-0.4 0.9-0.8z"/><path fill-rule="evenodd" class="c" d="m14.8 90.9c-1 0-1.8-0.8-1.8-1.7 0-0.9 0.8-1.7 1.8-1.7 1 0 1.9 0.8 1.9 1.7 0 0.9-0.9 1.7-1.9 1.7zm0.9-1.7c0-0.5-0.4-0.8-0.9-0.8-0.5 0-0.9 0.3-0.9 0.8 0 0.5 0.4 0.9 0.9 0.9 0.5 0 0.9-0.4 0.9-0.9z"/><path fill-rule="evenodd" class="c" d="m122.5 73.7c-1 0-1.8-0.8-1.8-1.7 0-1 0.8-1.7 1.8-1.7 1.1 0 1.9 0.7 1.9 1.7 0 0.9-0.8 1.7-1.9 1.7zm1-1.7c0-0.5-0.5-0.9-1-0.9-0.5 0-0.9 0.4-0.9 0.9 0 0.5 0.4 0.8 0.9 0.8 0.5 0 1-0.3 1-0.8z"/><path fill-rule="evenodd" class="c" d="m104 114.2c-1.1 0-1.9-0.8-1.9-1.8 0-0.9 0.8-1.7 1.9-1.7 1 0 1.8 0.8 1.8 1.7 0 1-0.8 1.8-1.8 1.8zm0.9-1.7c0-0.5-0.4-0.9-0.9-0.9-0.5 0-0.9 0.4-0.9 0.9 0 0.4 0.4 0.8 0.9 0.8 0.5 0 0.9-0.4 0.9-0.8z"/><path fill-rule="evenodd" class="c" d="m122.5 105.5c-1 0-1.8-0.7-1.8-1.7 0-0.9 0.8-1.7 1.8-1.7 1.1 0 1.9 0.8 1.9 1.7 0 1-0.8 1.7-1.9 1.7zm1-1.7c0-0.4-0.5-0.8-1-0.8-0.5 0-0.9 0.4-0.9 0.8 0 0.5 0.4 0.9 0.9 0.9 0.5 0 1-0.4 1-0.9z"/><path fill-rule="evenodd" class="c" d="m95.6 33.2c-1 0-1.8-0.7-1.8-1.7 0-0.9 0.8-1.7 1.8-1.7 1 0 1.9 0.8 1.9 1.7 0 1-0.9 1.7-1.9 1.7zm-0.9-1.7c0 0.5 0.4 0.9 0.9 0.9 0.5 0 0.9-0.4 0.9-0.9 0-0.4-0.4-0.8-0.9-0.8-0.5 0-0.9 0.4-0.9 0.8z"/><path fill-rule="evenodd" class="c" d="m39.9 110.7c-1 0-1.8-0.7-1.8-1.7 0-0.9 0.8-1.7 1.8-1.7 1 0 1.8 0.8 1.8 1.7 0 1-0.8 1.7-1.8 1.7zm0.9-1.7c0-0.5-0.4-0.8-0.9-0.8-0.5 0-0.9 0.3-0.9 0.8 0 0.5 0.4 0.9 0.9 0.9 0.5 0 0.9-0.4 0.9-0.9z"/><path class="c" d="m82.4 108.4c0.1 0.2 0 0.5-0.3 0.5-3.7 1.2-7.6 1.7-11.5 1.7-18.1 0-33.4-11.9-36.5-28.3-0.1-0.3 0.1-0.5 0.3-0.5 0.3-0.1 0.5 0.1 0.6 0.3 3 16 18 27.7 35.6 27.7 3.8 0 7.6-0.6 11.2-1.7 0.3-0.1 0.5 0.1 0.6 0.3z"/><path class="c" d="m70.6 42.7c-3.5 0-7 0.5-10.3 1.4-0.3 0.1-0.5-0.1-0.6-0.3-0.1-0.2 0.1-0.5 0.3-0.5 3.4-1 7-1.4 10.6-1.4 7.4 0 14.6 2 20.7 5.8 0.2 0.2 0.3 0.4 0.1 0.6q-0.1 0.2-0.4 0.2-0.1 0-0.2 0c-6-3.8-13-5.8-20.2-5.8z"/><path fill-rule="evenodd" class="c" d="m111.8 79c1 2.2 1.4 4.5 1.4 6.9 0 7.9-5.6 14.9-13.8 17.2-7.7 7.1-17.9 11.1-28.8 11.1-22.6 0-40.9-17-40.9-37.9q0-3 0.5-6 0-0.1 0-0.1c-0.9-2.2-1.4-4.5-1.4-6.9 0-9.4 7.9-17.3 18-17.9q0.1 0 0.1 0c6.9-4.6 15.1-7.1 23.7-7.1 22.5 0 40.9 17 40.9 38q0 0.9-0.1 1.8 0 0.1 0 0.1 0.2 0.3 0.3 0.7 0.1 0 0.1 0.1 0 0 0 0zm-82.1-15.7q0 3.4 1.4 6.6 0 0 0 0 0 0 0 0l0.1 0.2c2.9 6.4 9.6 10.5 17.1 10.5q0.3 0 0.6 0 0.3 0 0.6 0 0.3 0 0.6-0.1c2.9-0.2 5.8-1.1 8.3-2.6q0.1-0.1 0.3-0.1l7 0.9-1.6-6.1q0-0.2 0.1-0.3c1.7-2.7 2.6-5.8 2.6-8.9 0-8.6-6.9-16-16.1-17.1q-0.8-0.1-1.6-0.1c-0.6 0-1.3 0-1.9 0q-0.1 0-0.1 0-0.1 0-0.1 0c-9.7 0.6-17.3 8.1-17.3 17.1zm40.9 50c10.1 0 19.6-3.5 27-9.8q-0.3 0.1-0.7 0.1-0.9 0.2-1.8 0.2c-0.2 0.1-0.4 0.1-0.5 0.1q-0.4 0-0.8 0h-0.1q-0.6 0-1.2-0.1-0.2 0-0.5 0-0.3 0-0.7-0.1-0.1 0-0.3 0c-5.8-0.7-11.2-4.1-14.2-8.9q-0.2-0.4-0.4-0.7 0-0.1-0.1-0.2-1.4-2.5-1.8-5.4-0.1-0.5-0.1-1-0.1-0.4-0.1-0.9 0-0.4 0-0.8v-0.1q0-0.4 0-0.9 0-0.6 0.1-1.2 0-0.3 0.1-0.7 0.1-0.4 0.2-0.8 0 0 0 0 0.1-0.4 0.2-0.8l0.1-0.5q0.1-0.3 0.2-0.5 0.1-0.5 0.3-0.9l0.2-0.5q0.2-0.4 0.4-0.8l0.1-0.2q0.1-0.2 0.2-0.3l0.3-0.6q0.1-0.2 0.2-0.4l-1.7-6.5q0-0.3 0.1-0.4 0.2-0.2 0.5-0.2l7.5 1q0.5-0.3 1-0.5 0.5-0.3 0.9-0.5 0.5-0.2 1-0.4 0.1 0 0.4-0.1 0.4-0.2 0.8-0.3 0.1 0 0.1 0 0.6-0.2 1.2-0.4 0.4-0.1 0.8-0.2 0.5-0.1 1-0.1 0.3-0.1 0.7-0.1 0.2-0.1 0.6-0.1 0.3 0 0.7-0.1 0.1 0 0.3 0 0.1 0 0.3 0c0.5 0 0.9 0 1.3 0q0.4 0 0.7 0l0.3 0.1q0.3 0 0.6 0 0.1 0 0.4 0.1c5.9 0.7 11.1 4 14.1 8.7q0-0.2 0-0.3c0-20.5-17.9-37.1-39.9-37.1-7.9 0-15.5 2.1-22 6.1q0.3 0 0.6 0 0.8 0.1 1.6 0.2c9.7 1.1 16.9 8.8 16.9 17.9 0 3.2-0.9 6.4-2.6 9.2l1.7 6.5q0 0.3-0.1 0.4-0.2 0.2-0.4 0.2l-7.6-1c-2.5 1.5-5.5 2.4-8.5 2.7q-0.3 0-0.6 0.1-0.3 0-0.6 0c-0.3 0-0.5 0-0.7 0-7.4 0-14.1-3.8-17.4-9.9q-0.3 2.4-0.3 4.7c0 20.4 17.9 37 40 37zm41.7-27.4q0-3.4-1.4-6.6 0 0 0 0 0 0 0-0.1-0.2-0.4-0.5-0.9c-2.7-5.2-8-8.8-14.2-9.6q-0.2 0-0.3 0-0.3-0.1-0.5-0.1h-0.4q-0.3 0-0.5 0-0.5 0-0.8 0-0.3 0-0.5 0-0.2 0-0.4 0-0.2 0-0.3 0-0.3 0-0.6 0.1-0.3 0-0.6 0-0.3 0.1-0.6 0.1-0.6 0.1-1 0.2-0.4 0.1-0.8 0.2-0.5 0.1-1.1 0.3 0 0-0.1 0-0.4 0.1-0.8 0.3-0.2 0.1-0.4 0.1-0.4 0.2-0.8 0.4-0.5 0.2-0.9 0.4-0.6 0.3-1.2 0.6-0.1 0.1-0.3 0.1l-7-0.9 1.6 6.1q0 0.2-0.1 0.3-0.1 0.3-0.3 0.5l-0.3 0.5c0 0.2-0.1 0.3-0.2 0.4v0.1q-0.2 0.4-0.4 0.9l-0.2 0.4q-0.2 0.4-0.3 0.9-0.1 0.2-0.2 0.4l-0.1 0.5q-0.1 0.4-0.2 0.7 0 0 0 0.1-0.1 0.4-0.2 0.8 0 0.3-0.1 0.6-0.1 0.6-0.1 1.2 0 0.4 0 0.8v0.1q0 0.4 0 0.8 0 0.4 0.1 0.8 0 0.5 0.1 1 0.4 2.7 1.8 5.2 0 0 0 0.1 0.2 0.3 0.4 0.6c2.9 4.7 8 7.9 13.7 8.6q0 0 0 0 0.1 0 0.1 0 0 0 0 0 0.4 0 0.7 0.1 0.3 0 0.4 0 0.6 0 1.2 0h0.1q0.4 0 0.8 0 0.2 0 0.4 0c0.6-0.1 1.2-0.1 1.8-0.2q0.4-0.1 0.8-0.2 0.8-0.1 1.5-0.3c7.8-2.1 13.2-8.9 13.2-16.4z"/><path fill-rule="evenodd" class="c" d="m88.2 85.7c0 1.4-1.2 2.6-2.7 2.6q-0.6 0-1.1-0.2c-1-0.4-1.7-1.3-1.7-2.4 0-1 0.7-2 1.7-2.4q0.5-0.2 1.1-0.2c1.5 0 2.7 1.2 2.7 2.6zm-0.9 0c0-0.9-0.8-1.7-1.8-1.7q-0.4 0-0.7 0.1 0 0 0 0c-0.7 0.3-1.2 0.9-1.2 1.6 0 0.7 0.5 1.3 1.2 1.6q0.3 0.1 0.7 0.1c1 0 1.8-0.7 1.8-1.7z"/><path fill-rule="evenodd" class="c" d="m93.8 88.3c-1.5 0-2.8-1.2-2.8-2.6 0-1.4 1.3-2.6 2.8-2.6 1.6 0 2.8 1.2 2.8 2.6 0 1.4-1.2 2.6-2.8 2.6zm1.9-2.6c0-0.9-0.9-1.7-1.9-1.7-1 0-1.8 0.8-1.8 1.7 0 1 0.8 1.7 1.8 1.7 1 0 1.9-0.7 1.9-1.7z"/><path fill-rule="evenodd" class="c" d="m102.2 88.3c-1.6 0-2.8-1.2-2.8-2.6 0-1.4 1.2-2.6 2.8-2.6 1.5 0 2.8 1.2 2.8 2.6 0 1.4-1.3 2.6-2.8 2.6zm1.8-2.6c0-0.9-0.8-1.7-1.8-1.7-1 0-1.9 0.8-1.9 1.7 0 1 0.9 1.7 1.9 1.7 1 0 1.8-0.7 1.8-1.7z"/><path fill-rule="evenodd" class="c" d="m37.2 63.3c0-1 0.6-2 1.7-2.4q0.5-0.1 1-0.1c1.6 0 2.8 1.1 2.8 2.5 0 1.4-1.2 2.6-2.8 2.6q-0.5 0-1-0.2c-1-0.4-1.7-1.3-1.7-2.4zm0.9 0c0 0.7 0.5 1.4 1.2 1.6q0.3 0.1 0.6 0.1c1.1 0 1.9-0.7 1.9-1.7 0-0.9-0.8-1.7-1.9-1.7q-0.3 0-0.6 0.1 0 0 0 0c-0.7 0.3-1.2 0.9-1.2 1.6z"/><path fill-rule="evenodd" class="c" d="m48.3 65.9c-1.5 0-2.8-1.1-2.8-2.6 0-1.4 1.3-2.5 2.8-2.5 1.5 0 2.8 1.1 2.8 2.5 0 1.5-1.3 2.6-2.8 2.6zm1.8-2.6c0-0.9-0.8-1.7-1.8-1.7-1 0-1.9 0.8-1.9 1.7 0 1 0.9 1.7 1.9 1.7 1 0 1.8-0.7 1.8-1.7z"/><path fill-rule="evenodd" class="c" d="m56.7 65.9c-1.6 0-2.8-1.1-2.8-2.6 0-1.4 1.2-2.5 2.8-2.5 1.5 0 2.7 1.1 2.7 2.5 0 1.5-1.2 2.6-2.7 2.6zm1.8-2.6c0-0.9-0.8-1.7-1.8-1.7-1.1 0-1.9 0.8-1.9 1.7 0 1 0.8 1.7 1.9 1.7 1 0 1.8-0.7 1.8-1.7z"/></svg>