<svg version="1.2" xmlns="http://www.w3.org/2000/svg" viewBox="0 0 150 150" width="150" height="150"><style>.a{fill:#f6ab40}.b{fill:#754c29}.c{fill:#e1e2e3}.d{fill:#a2a4a7}.e{opacity:.3;fill:#fff}.f{fill:#755941}</style><ellipse class="a" cx="93.6" cy="64.9" rx="2.4" ry="2.6"/><path fill-rule="evenodd" class="b" d="m93.6 67.9c-1.5 0-2.7-1.3-2.7-3 0-1.6 1.2-2.9 2.7-2.9 1.4 0 2.6 1.3 2.6 2.9 0 1.7-1.2 3-2.6 3zm2-3c0-1.2-0.9-2.2-2-2.2-1.2 0-2.1 1-2.1 2.2 0 1.2 0.9 2.2 2.1 2.2 1.1 0 2-1 2-2.2z"/><ellipse class="a" cx="57.8" cy="64.9" rx="2.4" ry="2.6"/><path fill-rule="evenodd" class="b" d="m57.8 67.9c-1.5 0-2.7-1.3-2.7-3 0-1.6 1.2-2.9 2.7-2.9 1.5 0 2.7 1.3 2.7 2.9 0 1.7-1.2 3-2.7 3zm2-3c0-1.2-0.9-2.2-2-2.2-1.1 0-2 1-2 2.2 0 1.2 0.9 2.2 2 2.2 1.1 0 2-1 2-2.2z"/><path class="a" d="m133.7 50.3v58.6h-116.9v-58.6-5.7c0-1.7 1.3-3.1 2.9-3.1h111.1c1.6 0 2.9 1.4 2.9 3.1z"/><ellipse class="c" cx="75.7" cy="117.7" rx="2.7" ry="2.9"/><path class="c" d="m87.3 144.9c0.3 1.9-1.1 3.6-2.9 3.6h-1.8-14.5-1.8c-1.8 0-3.2-1.7-2.9-3.6l2.2-18.4h19.5z"/><path class="d" d="m64.8 133.1l0.8-6.6h19.5l0.8 6.6z"/><path fill-rule="evenodd" class="c" d="m133.7 108.9v14.5c0 1.7-1.3 3.1-2.9 3.1h-111.1c-1.6 0-2.9-1.4-2.9-3.1v-14.5zm-55.3 8.8c0-1.6-1.2-2.9-2.7-2.9-1.4 0-2.6 1.3-2.6 2.9 0 1.7 1.2 3 2.6 3 1.5 0 2.7-1.3 2.7-3z"/><path class="e" d="m70.3 41.5h60.6c1.5 0 2.8 1.3 2.8 2.9v5.9 57.2z"/><path fill-rule="evenodd" class="f" d="m75.7 122.1c-2.2 0-4.1-1.9-4.1-4.4 0-2.4 1.9-4.4 4.1-4.4 2.2 0 4 2 4 4.4 0 2.5-1.8 4.4-4 4.4zm1.3-4.4c0-0.8-0.6-1.4-1.3-1.4-0.8 0-1.4 0.6-1.4 1.4 0 0.8 0.6 1.5 1.4 1.5 0.7 0 1.3-0.7 1.3-1.5z"/><path fill-rule="evenodd" class="f" d="m54.1 93.5h-4.7v-5.1h1.1c0.8-9.6 6.3-17.8 13.9-22h-3.1c-0.6 1.5-1.9 2.6-3.5 2.6-2 0-3.7-1.8-3.7-4.1 0-2.2 1.7-4 3.7-4 1.6 0 2.9 1.1 3.5 2.6h12v-1.1h4.7v1.1h12.1c0.5-1.5 1.9-2.6 3.5-2.6 2 0 3.7 1.8 3.7 4 0 2.3-1.7 4.1-3.7 4.1-1.6 0-3-1.1-3.5-2.6h-3.1c7.6 4.2 13 12.4 13.9 22h1.1v5.1h-4.7v-5.1h0.8c-1.1-11.4-9.5-20.7-20.1-21.9v1h-4.7v-1c-10.5 1.2-19 10.5-20.1 21.9h0.9zm40.5-28.6c0-0.6-0.5-1.1-1-1.1-0.6 0-1.1 0.5-1.1 1.1 0 0.6 0.5 1.1 1.1 1.1 0.5 0 1-0.5 1-1.1zm-35.8 0c0-0.6-0.4-1.1-1-1.1-0.5 0-1 0.5-1 1.1 0 0.6 0.5 1.1 1 1.1 0.6 0 1-0.5 1-1.1z"/><path fill-rule="evenodd" class="f" d="m135 44.6v78.8c0 2.5-1.9 4.6-4.2 4.6h-44.1l1.9 16.7c0.1 0.8 0 1.6-0.2 2.4h11.6c0.7 0 1.3 0.6 1.3 1.4 0 0.8-0.6 1.5-1.3 1.5h-49.3c-0.7 0-1.3-0.7-1.3-1.5 0-0.8 0.6-1.4 1.3-1.4h11.6c-0.2-0.8-0.3-1.6-0.2-2.5l1.9-16.6h-44.3c-2.3 0-4.2-2.1-4.2-4.6v-78.8c0-2.5 1.9-4.6 4.2-4.6h111.1c2.3 0 4.2 2.1 4.2 4.6zm-116.8 0v62.9h114.1v-62.9c0-0.9-0.7-1.7-1.5-1.7h-111.1c-0.8 0-1.5 0.8-1.5 1.7zm66.2 102.5c0.5 0 0.9-0.3 1.2-0.6 0.3-0.4 0.4-0.9 0.4-1.4l-2.1-17.1h-17.1l-2 17.1q-0.2 0.8 0.3 1.4c0.3 0.3 0.7 0.6 1.2 0.6zm47.9-23.7v-13h-114.2v13c0 0.9 0.7 1.7 1.6 1.7h111c0.9 0 1.6-0.8 1.6-1.7z"/></svg>