<svg version="1.2" xmlns="http://www.w3.org/2000/svg" viewBox="0 0 150 150" width="150" height="150"><style>.a{fill:#bdc5cc}.b{fill:#656569}.c{fill:#dae2eb}.d{fill:#7d7d82}.e{fill:#61bd62}.f{fill:#82d984}.g{fill:#d4bc7b}.h{fill:#a89153}.i{fill:#3e3e40}.j{fill:#ffbd56}.k{fill:#e78a54}.l{fill:#e75c54}</style><path class="a" d="m133 44.6v4h-88v-4c0-1.8 1.8-3.2 4-3.2h80c2.2 0 4 1.4 4 3.2z"/><path class="a" d="m133 56.6v25.6c0 1.8-1.8 3.2-4 3.2h-24v-18.4c0-1.8-1.8-3.2-4-3.2h-56v-0.2-7z"/><path class="b" d="m45 48.6h88v8h-88z"/><path class="c" d="m133 63.2v19.2c0 1.7-1.8 3.2-4 3.2l-84-40.8c0-1.8 1.8-3.2 4-3.2h24 56c2.2 0 4 1.4 4 3.2z"/><path class="d" d="m133 48.6v8h-63.6l-16.5-8z"/><path fill-rule="evenodd" class="e" d="m105 104.6c0 1.8-1.8 3.2-4 3.2h-80c-2.2 0-4-1.4-4-3.2v-37.6c0-1.8 1.8-3.2 4-3.2h80c2.2 0 4 1.4 4 3.2zm-8-4.4v-3.2c0-0.2-0.2-0.4-0.5-0.4h-2c-0.3 0-0.5 0.2-0.5 0.4v3.2c0 0.2 0.2 0.4 0.5 0.4h2c0.3 0 0.5-0.2 0.5-0.4zm-4 0v-3.2c0-0.2-0.2-0.4-0.5-0.4h-2c-0.3 0-0.5 0.2-0.5 0.4v3.2c0 0.2 0.2 0.4 0.5 0.4h2c0.3 0 0.5-0.2 0.5-0.4zm2-22.4c0-3.8-3.8-6.8-8.5-6.8-1.8 0-3.6 0.5-4.9 1.3-1.5-0.8-3.2-1.3-5-1.3-4.7 0-8.5 3-8.5 6.8 0 3.8 3.8 6.8 8.5 6.8 1.8 0 3.5-0.5 5-1.3 1.3 0.8 3.1 1.3 4.9 1.3 4.7 0 8.5-3 8.5-6.8zm-6 22.4v-3.2c0-0.2-0.2-0.4-0.5-0.4h-2c-0.3 0-0.5 0.2-0.5 0.4v3.2c0 0.2 0.2 0.4 0.5 0.4h2c0.3 0 0.5-0.2 0.5-0.4zm-4 0v-3.2c0-0.2-0.2-0.4-0.5-0.4h-2c-0.3 0-0.5 0.2-0.5 0.4v3.2c0 0.2 0.2 0.4 0.5 0.4h2c0.3 0 0.5-0.2 0.5-0.4zm-7 0v-3.2c0-0.2-0.2-0.4-0.5-0.4h-2c-0.3 0-0.5 0.2-0.5 0.4v3.2c0 0.2 0.2 0.4 0.5 0.4h2c0.3 0 0.5-0.2 0.5-0.4zm-4 0v-3.2c0-0.2-0.2-0.4-0.5-0.4h-2c-0.3 0-0.5 0.2-0.5 0.4v3.2c0 0.2 0.2 0.4 0.5 0.4h2c0.3 0 0.5-0.2 0.5-0.4zm-4 0v-3.2c0-0.2-0.2-0.4-0.5-0.4h-2c-0.3 0-0.5 0.2-0.5 0.4v3.2c0 0.2 0.2 0.4 0.5 0.4h2c0.3 0 0.5-0.2 0.5-0.4zm-4 0v-3.2c0-0.2-0.2-0.4-0.5-0.4h-2c-0.3 0-0.5 0.2-0.5 0.4v3.2c0 0.2 0.2 0.4 0.5 0.4h2c0.3 0 0.5-0.2 0.5-0.4zm-7 0v-3.2c0-0.2-0.2-0.4-0.5-0.4h-2c-0.3 0-0.5 0.2-0.5 0.4v3.2c0 0.2 0.2 0.4 0.5 0.4h2c0.3 0 0.5-0.2 0.5-0.4zm-4 0v-3.2c0-0.2-0.2-0.4-0.5-0.4h-2c-0.3 0-0.5 0.2-0.5 0.4v3.2c0 0.2 0.2 0.4 0.5 0.4h2c0.3 0 0.5-0.2 0.5-0.4zm-4 0v-3.2c0-0.2-0.2-0.4-0.5-0.4h-2c-0.3 0-0.5 0.2-0.5 0.4v3.2c0 0.2 0.2 0.4 0.5 0.4h2c0.3 0 0.5-0.2 0.5-0.4zm-4 0v-3.2c0-0.2-0.2-0.4-0.5-0.4h-2c-0.3 0-0.5 0.2-0.5 0.4v3.2c0 0.2 0.2 0.4 0.5 0.4h2c0.3 0 0.5-0.2 0.5-0.4zm-20-18.2c0 0.6 0.4 1 1 1h15c0.6 0 1-0.4 1-1v-8.4c0-0.6-0.4-1-1-1h-15c-0.6 0-1 0.4-1 1zm13 18.2v-3.2c0-0.2-0.2-0.4-0.5-0.4h-2c-0.3 0-0.5 0.2-0.5 0.4v3.2c0 0.2 0.2 0.4 0.5 0.4h2c0.3 0 0.5-0.2 0.5-0.4zm-4 0v-3.2c0-0.2-0.2-0.4-0.5-0.4h-2c-0.3 0-0.5 0.2-0.5 0.4v3.2c0 0.2 0.2 0.4 0.5 0.4h2c0.3 0 0.5-0.2 0.5-0.4zm-4 0v-3.2c0-0.2-0.2-0.4-0.5-0.4h-2c-0.3 0-0.5 0.2-0.5 0.4v3.2c0 0.2 0.2 0.4 0.5 0.4h2c0.3 0 0.5-0.2 0.5-0.4zm-4 0v-3.2c0-0.2-0.2-0.4-0.5-0.4h-2c-0.3 0-0.5 0.2-0.5 0.4v3.2c0 0.2 0.2 0.4 0.5 0.4h2c0.3 0 0.5-0.2 0.5-0.4z"/><path class="f" d="m105 85.4v19.2c0 1.8-1.8 3.2-4 3.2l-84-40.8c0-1.8 1.8-3.2 4-3.2h24 56c2.2 0 4 1.4 4 3.2z"/><rect class="g" x="27" y="72.6" width="17" height="10.4" rx="1"></rect><path class="h" d="m43 83h-15c-0.6 0-1-0.4-1-0.8v-8.8c0-0.4 0.4-0.8 1-0.8h0.5l15.5 7.5v2.1c0 0.4-0.4 0.8-1 0.8z"/><path class="i" d="m97 97v3.2c0 0.2-0.2 0.4-0.5 0.4h-2c-0.3 0-0.5-0.2-0.5-0.4v-3.2c0-0.2 0.2-0.4 0.5-0.4h2c0.3 0 0.5 0.2 0.5 0.4z"/><path class="i" d="m93 97v3.2c0 0.2-0.2 0.4-0.5 0.4h-2c-0.3 0-0.5-0.2-0.5-0.4v-3.2c0-0.2 0.2-0.4 0.5-0.4h2c0.3 0 0.5 0.2 0.5 0.4z"/><path class="i" d="m89 97v3.2c0 0.2-0.2 0.4-0.5 0.4h-2c-0.3 0-0.5-0.2-0.5-0.4v-3.2c0-0.2 0.2-0.4 0.5-0.4h2c0.3 0 0.5 0.2 0.5 0.4z"/><path class="i" d="m85 97v3.2c0 0.2-0.2 0.4-0.5 0.4h-2c-0.3 0-0.5-0.2-0.5-0.4v-3.2c0-0.2 0.2-0.4 0.5-0.4h2c0.3 0 0.5 0.2 0.5 0.4z"/><path class="i" d="m78 97v3.2c0 0.2-0.2 0.4-0.5 0.4h-2c-0.3 0-0.5-0.2-0.5-0.4v-3.2c0-0.2 0.2-0.4 0.5-0.4h2c0.3 0 0.5 0.2 0.5 0.4z"/><path class="i" d="m74 97v3.2c0 0.2-0.2 0.4-0.5 0.4h-2c-0.3 0-0.5-0.2-0.5-0.4v-3.2c0-0.2 0.2-0.4 0.5-0.4h2c0.3 0 0.5 0.2 0.5 0.4z"/><path class="i" d="m70 97v3.2c0 0.2-0.2 0.4-0.5 0.4h-2c-0.3 0-0.5-0.2-0.5-0.4v-3.2c0-0.2 0.2-0.4 0.5-0.4h2c0.3 0 0.5 0.2 0.5 0.4z"/><path class="i" d="m66 97v3.2c0 0.2-0.2 0.4-0.5 0.4h-2c-0.3 0-0.5-0.2-0.5-0.4v-3.2c0-0.2 0.2-0.4 0.5-0.4h2c0.3 0 0.5 0.2 0.5 0.4z"/><path class="i" d="m59 97v3.2c0 0.2-0.2 0.4-0.5 0.4h-2c-0.3 0-0.5-0.2-0.5-0.4v-3.2c0-0.2 0.2-0.4 0.5-0.4h2c0.3 0 0.5 0.2 0.5 0.4z"/><path class="i" d="m55 97v3.2c0 0.2-0.2 0.4-0.5 0.4h-2c-0.3 0-0.5-0.2-0.5-0.4v-3.2c0-0.2 0.2-0.4 0.5-0.4h2c0.3 0 0.5 0.2 0.5 0.4z"/><path class="i" d="m51 97v3.2c0 0.2-0.2 0.4-0.5 0.4h-2c-0.3 0-0.5-0.2-0.5-0.4v-3.2c0-0.2 0.2-0.4 0.5-0.4h2c0.3 0 0.5 0.2 0.5 0.4z"/><path class="i" d="m47 97v3.2c0 0.2-0.2 0.4-0.5 0.4h-2c-0.3 0-0.5-0.2-0.5-0.4v-3.2c0-0.2 0.2-0.4 0.5-0.4h2c0.3 0 0.5 0.2 0.5 0.4z"/><path class="i" d="m40 97v3.2c0 0.2-0.2 0.4-0.5 0.4h-2c-0.3 0-0.5-0.2-0.5-0.4v-3.2c0-0.2 0.2-0.4 0.5-0.4h2c0.3 0 0.5 0.2 0.5 0.4z"/><path class="i" d="m36 97v3.2c0 0.2-0.2 0.4-0.5 0.4h-2c-0.3 0-0.5-0.2-0.5-0.4v-3.2c0-0.2 0.2-0.4 0.5-0.4h2c0.3 0 0.5 0.2 0.5 0.4z"/><path class="i" d="m32 97v3.2c0 0.2-0.2 0.4-0.5 0.4h-2c-0.3 0-0.5-0.2-0.5-0.4v-3.2c0-0.2 0.2-0.4 0.5-0.4h2c0.3 0 0.5 0.2 0.5 0.4z"/><path class="i" d="m28 97v3.2c0 0.2-0.2 0.4-0.5 0.4h-2c-0.3 0-0.5-0.2-0.5-0.4v-3.2c0-0.2 0.2-0.4 0.5-0.4h2c0.3 0 0.5 0.2 0.5 0.4z"/><path class="j" d="m86.5 71c4.7 0 8.5 3 8.5 6.8 0 3.8-3.8 6.8-8.5 6.8-1.8 0-3.6-0.5-4.9-1.3 2.1-1.2 3.5-3.2 3.5-5.5 0-2.3-1.4-4.3-3.5-5.5 1.3-0.8 3.1-1.3 4.9-1.3z"/><path class="k" d="m81.6 72.3c2.1 1.2 3.5 3.2 3.5 5.5 0 2.3-1.4 4.3-3.5 5.5-2.2-1.2-3.6-3.2-3.6-5.5 0-2.3 1.4-4.3 3.6-5.5z"/><path class="l" d="m81.6 72.3c-2.2 1.2-3.6 3.2-3.6 5.5 0 2.3 1.4 4.3 3.6 5.5-1.5 0.8-3.2 1.3-5 1.3-4.7 0-8.5-3-8.5-6.8 0-3.8 3.8-6.8 8.5-6.8 1.8 0 3.6 0.5 5 1.3z"/><path fill-rule="evenodd" class="i" d="m135 44.6v37.6c0 2.6-2.7 4.8-6 4.8h-22v17.6c0 2.6-2.7 4.8-6 4.8h-80c-3.3 0-6-2.2-6-4.8v-37.6c0-2.6 2.7-4.8 6-4.8h22v-17.6c0-2.6 2.7-4.8 6-4.8h80c3.3 0 6 2.2 6 4.8zm-116 59.6c0 1.1 0.9 2 2 2h80c1.1 0 2-0.9 2-2v-36.8c0-1.1-0.9-2-2-2h-80c-1.1 0-2 0.9-2 2zm112-46h-84v4h54c3.3 0 6 2.2 6 4.8v16.8h22c1.1 0 2-0.7 2-1.6zm-84-3.2h84v-4.8h-84zm84-10.4c0-0.9-0.9-1.6-2-1.6h-80c-1.1 0-2 0.7-2 1.6v2.4h84z"/><path fill-rule="evenodd" class="i" d="m97 77.8c0 4.6-4.7 8.4-10.5 8.4-1.8 0-3.4-0.3-5-1-1.5 0.7-3.2 1-4.9 1-5.8 0-10.5-3.8-10.5-8.4 0-4.6 4.7-8.4 10.5-8.4 1.7 0 3.4 0.3 4.9 1 1.6-0.7 3.2-1 5-1 5.8 0 10.5 3.8 10.5 8.4zm-21 0c0-1.8 0.8-3.6 2.1-5q-0.7-0.2-1.5-0.2c-3.6 0-6.5 2.3-6.5 5.2 0 2.9 2.9 5.2 6.5 5.2q0.8 0 1.5-0.2c-1.3-1.4-2.1-3.2-2.1-5zm7.1 0c0-1.3-0.6-2.4-1.6-3.4-0.9 1-1.5 2.2-1.5 3.4 0 1.2 0.6 2.4 1.5 3.4 1-1 1.6-2.1 1.6-3.4zm9.9 0c0-2.9-2.9-5.2-6.5-5.2q-0.8 0-1.5 0.2c1.3 1.4 2.1 3.2 2.1 5 0 1.8-0.8 3.6-2.1 5q0.7 0.2 1.5 0.2c3.6 0 6.5-2.3 6.5-5.2z"/><path fill-rule="evenodd" class="i" d="m25 74c0-1.7 1.3-3 3-3h15c1.7 0 3 1.3 3 3v7.6c0 1.7-1.3 3-3 3h-15c-1.7 0-3-1.3-3-3zm4 7.4h13v-7.2h-13z"/></svg>