<svg version="1.2" xmlns="http://www.w3.org/2000/svg" viewBox="0 0 150 150" width="150" height="150"><style>.a{fill:#fff}.b{fill:#eceded}.c{fill:#414042}.d{fill:#8e9093}.e{opacity:.4;fill:#414042}</style><path class="a" d="m46.8 63.1v7.8l-8.5-6.8v-0.1c0.6-0.5 1.4-0.9 2.2-0.9z"/><path class="b" d="m58 86.9v0.1l-16.4 22.2v0.5h-1.3c-1.9 0-3.5-1.8-3.5-4v-38.3c0-1.4 0.6-2.6 1.5-3.4v0.1l8.5 6.8v12c0 2.2 1.5 4 3.5 4h1.2 4.5z"/><path class="b" d="m97.6 109.2v0.5h-51.5-4.5v-0.5l16.4-22.2v-0.1h23.2v0.3z"/><g style="opacity:.1"><path class="c" d="m49.9 109.1v0.5h-1.8-2-4.5v-0.5l19.6-26.3 0.1-0.2 3 2.5 2.2 1.7z"/></g><g style="opacity:.1"><path class="c" d="m73 86.8l2.2-1.7 3-2.5 0.1 0.2 19.6 26.3v0.5h-4.5-2-1.8v-0.5z"/></g><path class="b" d="m102 87.3v18.4c0 2.2-1.6 4-3.5 4h-0.5l-0.4-0.5-16.4-22v-0.3h20.8z"/><path class="b" d="m107.6 86.9h-0.1v-0.5l-19.4-26.2-0.2-0.3 22.9-18.6 0.1-0.1c0.9 0.8 1.5 2 1.5 3.4v38.3c0 2.2-1.6 4-3.5 4z"/><path class="b" d="m107.5 86.4v0.5h-5.2-21.1-23.2-2-4.5v-0.5l19.6-26.3 0.1-0.2 3 2.5 2.6 2.1c1.6 1.3 3.8 1.3 5.4 0l5.7-4.6 0.2 0.3z"/><g style="opacity:.1"><path class="c" d="m59.8 86.4v0.5h-1.8-2-4.5v-0.5l19.6-26.3 0.1-0.2 3 2.5 2.2 1.7z"/></g><path class="b" d="m71.2 59.9l-0.1 0.2-19.6 26.3v0.5h-1.2c-2 0-3.5-1.8-3.5-4v-12-7.8-18.5c0-1.3 0.5-2.4 1.3-3.2z"/><path class="a" d="m110.9 41.2l-0.1 0.1-22.9 18.6-5.7 4.6c-1.6 1.3-3.8 1.3-5.4 0l-2.6-2.1-3-2.5-23.1-18.5c0.6-0.7 1.5-1 2.4-1h58.2c0.8 0 1.6 0.3 2.2 0.8z"/><g style="opacity:.1"><path class="c" d="m82.9 64.1l2.2-1.7 3-2.5 0.1 0.2 19.6 26.3v0.5h-4.5-2-1.9v-0.5z"/></g><path fill-rule="evenodd" class="d" d="m113.2 44.6v38.3c0 2.8-1.9 5-4.3 5h-6.1v17.8c0 2.7-1.9 4.9-4.3 4.9h-58.2c-2.4 0-4.3-2.2-4.3-4.9v-38.3c0-1.7 0.6-3.2 1.8-4.1 0.8-0.7 1.7-1.1 2.7-1.1h5.4v-17.6c0-1.4 0.5-2.7 1.4-3.7q0 0 0-0.1 0.2-0.2 0.5-0.3c0.7-0.7 1.7-1.1 2.7-1.1h58.2c1 0 1.9 0.4 2.7 1 1.1 1 1.8 2.5 1.8 4.2zm-62.7-3.3q-0.5 0-0.9 0.2l22.1 17.6 5.6 4.6c1.3 1.1 3.1 1.1 4.5 0l5.6-4.6 21.9-17.7q-0.3-0.1-0.6-0.1zm55.6 44.7l-18.4-24.8-5 4c-0.9 0.8-2 1.2-3.2 1.2-1.1 0-2.2-0.4-3.2-1.2l-5-4-18.3 24.8zm-47.7 1.9l-15.5 20.8h53.2l-15.5-20.8zm-10.8-5c0 1.7 1.2 3.1 2.7 3.1h0.5q0-0.1 0.1-0.2l19-25.7-21.7-17.5c-0.4 0.6-0.6 1.3-0.6 2zm-7.1-18.9q-0.3 0.1-0.6 0.1l6 5v-5.1zm-0.2 44.7h0.5q0.1-0.1 0.1-0.2l15.4-20.7h-6c-2.4 0-4.3-2.2-4.3-4.9v-11.5l-7.7-6.2c-0.4 0.6-0.6 1.3-0.6 2.1v38.4c0 1.6 1.2 3 2.6 3zm60.9-20.9h-18.3l15.3 20.7q0.1 0.1 0.1 0.2h0.2c1.5 0 2.7-1.4 2.7-3 0 0 0-17.9 0-17.9zm10.4-43.2c0-0.8-0.3-1.6-0.7-2.2l-21.8 17.6 19.1 25.8q0 0.1 0.1 0.1h0.6c1.5 0 2.7-1.3 2.7-3z"/><path class="e" d="m102.9 87.9v5.2h-53.5c-4.2 0-7.6-3.9-7.6-8.6v-22.3h4.1v8.7 12c0 2.7 2 5 4.4 5h1.2 4.5 2 23.2z"/></svg>