<svg version="1.2" xmlns="http://www.w3.org/2000/svg" viewBox="0 0 150 150" width="150" height="150"><style>.a{fill:#d0d2d3}.b{fill:#6ecaf3}.c{fill:#ced0d1}.d{fill:#f6cc78}.e{fill:#bbbdbf}.f{fill:#58595b}.g{fill:#ffb4d3}.h{fill:#a6a8ab}.i{opacity:.2;fill:#fff}</style><ellipse class="a" cx="75" cy="114" rx="3" ry="3.2"/><path fill-rule="evenodd" class="a" d="m138.5 105.2v12.9c0 3.5-2.6 6.3-5.8 6.3h-11.2v-7.7c0-0.6-0.4-1.1-1-1.1h-15.7c-0.5 0-1 0.5-1 1.1v7.7h-86.5c-3.2 0-5.8-2.8-5.8-6.3v-12.9zm-60.6 8.8c0-1.8-1.3-3.2-2.9-3.2-1.7 0-3 1.4-3 3.2 0 1.8 1.3 3.2 3 3.2 1.6 0 2.9-1.4 2.9-3.2z"/><path class="b" d="m11.5 41.2h127v64h-127z"/><path fill-rule="evenodd" class="c" d="m138.5 37.9v3.3h-127v-3.3c0-3.5 2.6-6.3 5.8-6.3h115.4c3.2 0 5.8 2.8 5.8 6.3zm-108.6-1.5c0-0.9-0.6-1.6-1.4-1.6-0.9 0-1.5 0.7-1.5 1.6 0 0.9 0.6 1.6 1.5 1.6 0.8 0 1.4-0.7 1.4-1.6zm-5.1 0c0-0.9-0.7-1.6-1.5-1.6-0.8 0-1.5 0.7-1.5 1.6 0 0.9 0.7 1.6 1.5 1.6 0.8 0 1.5-0.7 1.5-1.6zm-5.2 0c0-0.9-0.7-1.6-1.5-1.6-0.8 0-1.5 0.7-1.5 1.6 0 0.9 0.7 1.6 1.5 1.6 0.8 0 1.5-0.7 1.5-1.6z"/><path class="d" d="m121.5 124.4v9.3c0 0.6-0.4 1.1-1 1.1h-15.7c-0.5 0-1-0.5-1-1.1v-9.3-7.7c0-0.6 0.5-1.1 1-1.1h15.7c0.6 0 1 0.5 1 1.1z"/><path class="e" d="m87.7 144.4c0.3 2.1-1.2 4-3.1 4h-19.9c-2 0-3.5-1.9-3.1-4l2.3-20h21.4z"/><ellipse class="f" cx="28.5" cy="36.4" rx="1.5" ry="1.6"/><ellipse class="f" cx="23.3" cy="36.4" rx="1.5" ry="1.6"/><rect class="g" x="46.9" y="76.4" width="11.8" height="12.8" rx="1"></rect><rect class="g" x="46.9" y="57.2" width="11.8" height="12.8" rx="1"></rect><path fill-rule="evenodd" class="f" d="m45.5 58.6c0-1.7 1.3-3 3-3h8.7c1.7 0 3 1.3 3 3v10c0 1.7-1.3 3-3 3h-8.7c-1.7 0-3-1.3-3-3zm2.9 9.8h8.9v-9.6h-8.9z"/><path fill-rule="evenodd" class="f" d="m45.5 77.8c0-1.7 1.3-3 3-3h8.7c1.7 0 3 1.3 3 3v10c0 1.7-1.3 3-3 3h-8.7c-1.7 0-3-1.3-3-3zm2.9 9.8h8.9v-9.6h-8.9z"/><path class="f" d="m94.9 65.2h-30.2c-0.9 0-1.5-0.7-1.5-1.6 0-0.9 0.6-1.6 1.5-1.6h30.2c0.9 0 1.5 0.7 1.5 1.6 0 0.9-0.6 1.6-1.5 1.6z"/><path class="f" d="m99.4 71.6h-34.7c-0.9 0-1.5-0.7-1.5-1.6 0-0.9 0.6-1.6 1.5-1.6h34.7c0.8 0 1.5 0.7 1.5 1.6 0 0.9-0.7 1.6-1.5 1.6z"/><path class="f" d="m103.1 78h-38.4c-0.9 0-1.5-0.7-1.5-1.6 0-0.9 0.6-1.6 1.5-1.6h38.4c0.8 0 1.4 0.7 1.4 1.6 0 0.9-0.6 1.6-1.4 1.6z"/><path class="f" d="m97.9 84.4h-33.2c-0.9 0-1.5-0.7-1.5-1.6 0-0.9 0.6-1.6 1.5-1.6h33.2c0.8 0 1.5 0.7 1.5 1.6 0 0.9-0.7 1.6-1.5 1.6z"/><path class="f" d="m100.9 90.8h-36.2c-0.9 0-1.5-0.7-1.5-1.6 0-0.9 0.6-1.6 1.5-1.6h36.2c0.8 0 1.4 0.7 1.4 1.6 0 0.9-0.6 1.6-1.4 1.6z"/><path class="f" d="m100.9 58.8h-36.2c-0.9 0-1.5-0.7-1.5-1.6 0-0.9 0.6-1.6 1.5-1.6h36.2c0.8 0 1.4 0.7 1.4 1.6 0 0.9-0.6 1.6-1.4 1.6z"/><ellipse class="f" cx="18.1" cy="36.4" rx="1.5" ry="1.6"/><path class="h" d="m63 130.8l0.9-6.4h21.4l1 6.4z"/><path class="i" d="m78 31.6h54.7c3.2 0 5.8 2.8 5.8 6.3v3.3 62.4z"/><path fill-rule="evenodd" class="f" d="m140 37.9v80.2c0 4.3-3.3 7.9-7.3 7.9h-9.7v7.7c0 1.5-1.1 2.7-2.5 2.7h-15.7c-1.4 0-2.5-1.2-2.5-2.7v-7.7h-15.3l2.2 18.2c0.1 0.9 0 1.8-0.3 2.6h20.8c0.8 0 1.5 0.7 1.5 1.6 0 0.9-0.7 1.6-1.5 1.6h-70.1c-0.8 0-1.5-0.7-1.5-1.6 0-0.9 0.7-1.6 1.5-1.6h20.8c-0.3-0.8-0.4-1.8-0.3-2.7l2.1-18.1h-44.9c-4 0-7.3-3.6-7.3-7.9v-80.2c0-4.3 3.3-7.9 7.3-7.9h115.4c4 0 7.3 3.6 7.3 7.9zm-127 65.7h124v-60.8h-124zm0-65.7v1.7h124v-1.7c0-2.6-1.9-4.7-4.3-4.7h-115.4c-2.4 0-4.3 2.1-4.3 4.7zm71.6 108.9c0.5 0 0.9-0.2 1.3-0.7 0.3-0.4 0.4-0.9 0.3-1.4l-2.2-18.7h-18.8l-2.2 18.6q-0.1 0.9 0.4 1.5c0.3 0.5 0.8 0.7 1.3 0.7zm20.7-13.6h14.8v-16h-14.8zm31.8-15.1v-11.3h-124.1v11.3c0 2.6 1.9 4.7 4.3 4.7h85v-6.1c0-1.5 1.2-2.7 2.5-2.7h15.7c1.4 0 2.5 1.2 2.5 2.7v6.1h9.7c2.4 0 4.4-2.1 4.4-4.7z"/><path fill-rule="evenodd" class="f" d="m75 119.6c-2.5 0-4.4-2.1-4.4-4.8 0-2.7 1.9-4.8 4.4-4.8 2.5 0 4.4 2.1 4.4 4.8 0 2.7-1.9 4.8-4.4 4.8zm1.5-4.8c0-0.9-0.7-1.6-1.5-1.6-0.8 0-1.5 0.7-1.5 1.6 0 0.9 0.7 1.6 1.5 1.6 0.8 0 1.5-0.7 1.5-1.6z"/><path class="f" d="m118.5 124.1l-1 3.2c-0.2 0.6-0.7 1.1-1.3 1.1-0.6 0-1.1-0.3-1.4-0.9l-0.7-1.5-1 3c-0.2 0.6-0.8 1-1.4 1-0.6 0-1.2-0.4-1.4-1l-1.1-3.1c-0.4 0.4-1.1 0.5-1.6 0.2-0.8-0.4-1-1.4-0.7-2.2l1.3-2.6c0.2-0.6 0.8-0.9 1.4-0.9 0.5 0 1 0.4 1.3 1l0.8 2.4 0.8-2.4c0.2-0.6 0.7-1 1.3-1 0.6 0 1.2 0.3 1.4 0.9l0.7 1.4c0.3-0.6 1-0.8 1.7-0.6 0.7 0.3 1.2 1.2 0.9 2z"/></svg>