<svg version="1.2" xmlns="http://www.w3.org/2000/svg" viewBox="0 0 150 150" width="150" height="150"><style>.a{fill:#ffd66f}.b{fill:#fff}.c{fill:#cfa353}.d{fill:#cfc3be}.e{fill:#87685c}</style><path class="a" d="m81.9 44.9c13.8 3.8 20.6 19.2 15.2 32.2h-0.1c-7 0.6-14.4 0.9-22 0.9-7.6 0-15-0.3-22-0.9h-0.1c-5.3-13 1.4-28.4 15.2-32.2q3.3-0.9 6.9-0.9 3.6 0 6.9 0.9z"/><path class="b" d="m97.1 77.1q-0.2 0.7-0.5 1.3c-4.1 8.5-9.4 14.1-9.6 27.6 0 0.4-0.7 0.8-2 1.1-2.2 0.5-5.8 0.9-10 0.9-4.2 0-7.8-0.4-10-0.9-1.3-0.3-2-0.7-2-1.1-0.2-13.5-5.5-19.1-9.5-27.6q-0.4-0.6-0.6-1.3h0.1c7 0.6 14.4 0.9 22 0.9 7.6 0 15-0.3 22-0.9z"/><path class="b" d="m85 107.1v6.9c0 1.1-0.9 2-2 2h-2-12-2c-1.1 0-2-0.9-2-2v-6.9c2.2 0.5 5.8 0.9 10 0.9 4.2 0 7.8-0.4 10-0.9z"/><path class="b" d="m81 116v4.2c0 1-0.8 1.8-1.8 1.8h-8.4c-1 0-1.8-0.8-1.8-1.8v-4.2z"/><path class="c" d="m81.7 44.8q0.1 0.1 0.2 0.1 0.7 0.2 1.2 0.4-1.6 0.2-3.1 0.6c-13.6 3.8-20.4 18.9-15.3 31.9q-6-0.3-11.7-0.7h-0.1c-1.3-3-1.8-6.2-1.8-9.3 0-10.3 6.4-20 17-22.9q3.3-0.9 6.9-0.9 3.5 0 6.7 0.8z"/><path class="d" d="m64.7 77.8q0 0.2 0.1 0.3 0.3 0.7 0.6 1.3c4 8.5 9.3 14.1 9.6 27.6h-0.1c0 0.3 0.6 0.7 1.5 1q-0.7 0-1.4 0c-4.2 0-7.8-0.4-10-0.9-1.3-0.3-2-0.7-2-1.1-0.2-13.5-5.5-19.1-9.5-27.6q-0.4-0.6-0.6-1.3h0.1q5.7 0.4 11.7 0.7z"/><path class="d" d="m75 108q0.7 0 1.4 0 0.3 0 0.5 0.1v6.9q0 0.5 0.3 1h-8.2-2c-1.1 0-2-0.9-2-2v-6.9c2.2 0.5 5.8 0.9 10 0.9z"/><path fill-rule="evenodd" class="d" d="m79.2 122q0 0 0 0 0 0 0 0zm0 0q0 0 0 0 0 0 0 0zm0 0q0 0 0 0 0 0 0 0zm0.1 0q0 0 0 0 0 0 0 0zm0 0q0 0 0 0 0 0 0 0z"/><path class="d" d="m78.9 117h2v3.6c-0.2 0.8-0.8 1.3-1.6 1.4q0 0 0 0 0 0 0 0 0 0 0 0-0.1 0-0.1 0 0 0 0 0 0 0 0 0 0 0 0 0 0 0 0 0 0 0 0 0h-8.4c-1 0-1.8-0.8-1.8-1.8v-4.2h8.2c0.3 0.6 1 1 1.7 1z"/><path fill-rule="evenodd" class="e" d="m97.3 56.5c3.3 6.6 3.5 14.2 0.8 21q-0.3 0.7-0.6 1.3c-1 2-2 3.9-3 5.6-3.3 5.9-6.3 11.5-6.5 21.6 0 1-1 1.5-2 1.8v6.2c0 1.6-1.3 3-3 3h-1v3.2c0 1.5-1.3 2.8-2.8 2.8h-8.4c-1.5 0-2.8-1.3-2.8-2.8v-3.2h-1c-1.7 0-3-1.4-3-3v-6.2c-1-0.3-2-0.8-2-1.8-0.1-10.1-3.2-15.7-6.5-21.5-1-1.8-2-3.7-2.9-5.6q-0.4-0.7-0.6-1.4c-2.8-6.8-2.5-14.4 0.7-21 3.1-6.3 8.5-10.7 15.1-12.6 4.6-1.2 9.8-1.2 14.4 0 6.7 1.9 12 6.3 15.1 12.6zm-1.7 21.7c-6.7 0.5-13.7 0.8-20.6 0.8-6.9 0-13.8-0.3-20.5-0.8 0.9 1.8 1.8 3.6 2.8 5.3 3.2 5.8 6.5 11.8 6.7 22.2 0.2 0.1 0.5 0.2 1.2 0.4 2.2 0.6 5.9 0.9 9.8 0.9 3.9 0 7.6-0.3 9.8-0.9 0.7-0.2 1-0.3 1.2-0.4 0.2-10.5 3.4-16.2 6.8-22.2 0.9-1.7 1.9-3.5 2.8-5.3zm-15.6 38.8h-10v3.2c0 0.4 0.4 0.8 0.8 0.8h8.4c0.4 0 0.8-0.4 0.8-0.8 0 0 0-3.2 0-3.2zm4-3v-5.7c-2.3 0.4-5.6 0.7-9 0.7-3.4 0-6.7-0.3-9-0.7v5.7c0 0.5 0.4 1 1 1h16c0.6 0 1-0.5 1-1zm3-8h-1q0 0 0 0zm-24 0h1q0 0 0 0zm32.5-48.6c-2.8-5.8-7.8-9.9-13.8-11.5-4.4-1.2-9.1-1.2-13.4 0-6.1 1.6-11 5.7-13.8 11.5-2.9 5.8-3.2 12.6-1 18.7 14 1.1 29 1.1 42.9 0 2.3-6.1 2-12.8-0.9-18.7z"/><path class="e" d="m74 28h2v10h-2z"/><path class="e" d="m53.1 34.1l1.8-1 5 8.7-1.8 1z"/><path class="e" d="m38.1 49.8l1-1.7 8.7 5-1 1.7z"/><path class="e" d="m35 69h10v2h-10z"/><path class="e" d="m39.9 88.3l8.6-4.9 1 1.7-8.6 5z"/><path class="e" d="m100.4 85l1-1.7 8.7 5-1 1.7z"/><path class="e" d="m105 69h10v2h-10z"/><path class="e" d="m102.2 53.1l8.7-5 1 1.7-8.7 5z"/><path class="e" d="m90.1 41.8l5-8.7 1.8 1-5 8.7z"/></svg>