<svg version="1.2" xmlns="http://www.w3.org/2000/svg" viewBox="0 0 150 150" width="150" height="150"><style>.a{fill:#ecedde}.b{fill:#dfdcca}.c{fill:#f0edde}.d{fill:#6d6e71}.e{fill:#656669}.f{fill:#e75c54}.g{fill:#fff}.h{fill:#ffa34d}.i{fill:#56a86c}.j{fill:#56b2f4}.k{fill:#ffd569}.l{fill:#9773c0}.m{fill:#8e9093}.n{fill:#eeeff0}.o{fill:#a2f1ff}.p{fill:#c3f6ff}.q{fill:#58595b}</style><path class="a" d="m111.7 32v4.8h-24.1v-4.8c0-1.5 1.5-2.8 3.4-2.8h17.2c1.9 0 3.5 1.3 3.5 2.8z"/><path class="b" d="m108.2 29.2c1.9 0 3.5 1.3 3.5 2.8v4.8h-7.8v-7.6z"/><path class="c" d="m114 36.9c3.5 0 6.3 2.2 6.3 5.1v67h-0.8-89.4v-67c0-2.9 2.8-5.1 6.3-5.1z"/><path class="d" d="m120.3 109v5.3c0 2.8-2.8 5.1-6.3 5.1h-77.6c-3.5 0-6.3-2.3-6.3-5.1v-5.3h89.4z"/><path class="b" d="m103.1 36.9h10.9c3.5 0 6.3 2.2 6.3 5.1v67h-17.2z"/><path class="e" d="m120.3 109v5.3c0 2.8-2.8 5.1-6.3 5.1h-10.9v-10.4z"/><ellipse class="f" cx="107.4" cy="97.8" rx="4.4" ry="3.5"/><path class="g" d="m40.3 45.2h15.5v9h-15.5z"/><path class="f" d="m64.1 100.1h3.9v8.7h-3.9z"/><path class="h" d="m68 100.1h3.9v8.7h-3.9z"/><path class="i" d="m71.9 100.1h3.9v8.7h-3.9z"/><path class="j" d="m75.8 100.1h3.8v8.7h-3.8z"/><path class="k" d="m79.6 100.1h3.9v8.7h-3.9z"/><path class="l" d="m83.5 100.1h3.9v8.7h-3.9z"/><path class="m" d="m75.8 101.3c-4.2 0-8.2-0.7-11.7-2.1-9.5-3.6-16.1-11.4-16.1-20.4 0-12.5 12.5-22.6 28-22.6 15.4 0 27.9 10.1 27.9 22.6 0 9-6.5 16.8-16.1 20.4-3.6 1.4-7.6 2.1-11.8 2.1q-0.1 0-0.1 0 0 0-0.1 0"/><path class="d" d="m75.8 98.6c-3.7 0-7.2-0.7-10.3-1.9-8.3-3.2-14.1-10-14.1-17.9 0-11 11-19.8 24.6-19.8 13.5 0 24.5 8.8 24.5 19.8 0 7.9-5.8 14.7-14.1 17.9-3.2 1.2-6.7 1.9-10.4 1.9q-0.1 0-0.1 0 0 0-0.1 0"/><path class="n" d="m49.8 45.2h6v9h-6z"/><path class="o" d="m75.9 88c-1.7 0-3.3-0.3-4.8-0.9-3.9-1.5-6.6-4.6-6.6-8.3 0-5.1 5.1-9.2 11.5-9.2 6.3 0 11.4 4.1 11.4 9.2 0 3.7-2.7 6.8-6.6 8.3-1.5 0.6-3.1 0.9-4.8 0.9q-0.1 0-0.1 0 0 0 0 0z"/><path class="g" d="m79.5 78.2q-0.5 0-0.9-0.2c-0.8-0.3-1.4-0.9-1.4-1.7 0-1 1.1-1.8 2.3-1.8 1.3 0 2.3 0.8 2.3 1.8 0 0.8-0.5 1.4-1.3 1.7q-0.4 0.2-1 0.2 0 0 0 0z"/><path class="p" d="m80.3 87.3c-1.4 0.4-2.8 0.7-4.3 0.7q-0.1 0-0.1 0 0 0 0 0c-1.7 0-3.3-0.3-4.8-0.9-3.9-1.5-6.6-4.6-6.6-8.3 0-5.1 5.1-9.2 11.5-9.2 1.5 0 2.9 0.2 4.3 0.7-4.2 1.3-7.1 4.6-7.1 8.5 0 3.7 2.7 6.8 6.5 8.3q0.3 0.1 0.6 0.2z"/><path fill-rule="evenodd" class="q" d="m62.8 78.8c0-5.9 5.9-10.6 13.2-10.6 7.2 0 13.1 4.7 13.1 10.6 0 4.1-3 7.8-7.6 9.6q-2.6 1-5.5 1-0.1 0-0.1 0-2.9 0-5.5-1c-4.6-1.8-7.6-5.5-7.6-9.6zm3.5 0c0 3 2.1 5.8 5.5 7.1q2 0.7 4.1 0.7 0 0 0.1 0 2.2 0 4.1-0.7c3.4-1.3 5.5-4.1 5.5-7.1 0-4.3-4.3-7.8-9.6-7.8-5.4 0-9.7 3.5-9.7 7.8z"/><path fill-rule="evenodd" class="q" d="m76 54.8c16.3 0 29.6 10.8 29.6 24 0 9.2-6.7 17.7-17 21.7-4 1.5-8.2 2.2-12.6 2.2h-0.2q-0.1 0-0.1 0c-4.3 0-8.5-0.8-12.4-2.2-10.3-4-17-12.5-17-21.7 0-13.2 13.3-24 29.7-24zm-26.3 24c0 8.2 5.9 15.7 15.1 19.2 3.4 1.3 7.1 1.9 11 2q0 0 0.1 0c4 0 7.7-0.7 11.2-2 9.2-3.5 15.1-11 15.1-19.2 0-11.7-11.8-21.2-26.2-21.2-14.5 0-26.3 9.5-26.3 21.2z"/><path fill-rule="evenodd" class="q" d="m122 42v72.3c0 3.6-3.6 6.5-8 6.5h-77.6c-4.4 0-8-2.9-8-6.5v-5.1q-0.1-0.1-0.1-0.2 0-0.2 0.1-0.3v-66.7c0-3.6 3.6-6.5 8-6.5h49.5v-3.5c0-2.3 2.3-4.1 5.1-4.1h17.2c2.9 0 5.2 1.8 5.2 4.1v3.5h0.6c4.4 0 8 2.9 8 6.5zm-32.7-6.6h20.6v-3.4c0-0.8-0.7-1.4-1.7-1.4h-17.2c-0.9 0-1.7 0.6-1.7 1.4zm-57.5 6.6v65.6h86.8v-65.6c0-2.1-2.1-3.7-4.6-3.7h-77.6c-2.5 0-4.6 1.6-4.6 3.7zm86.8 72.3v-3.9h-86.8v3.9c0 2 2.1 3.7 4.6 3.7h77.6c2.5 0 4.6-1.7 4.6-3.7z"/><path fill-rule="evenodd" class="q" d="m38.6 45.8c0-1.1 0.9-2 2-2h14.9c1.1 0 2 0.9 2 2v7.8c0 1.1-0.9 2-2 2h-14.9c-1.1 0-2-0.9-2-2zm3.4 7h12.1v-6.2h-12.1z"/><path fill-rule="evenodd" class="q" d="m107.4 102.7c-3.3 0-6-2.2-6-4.9 0-2.7 2.7-4.9 6-4.9 3.4 0 6.1 2.2 6.1 4.9 0 2.7-2.7 4.9-6.1 4.9zm2.7-4.9c0-1.2-1.2-2.1-2.7-2.1-1.4 0-2.6 0.9-2.6 2.1 0 1.2 1.2 2.2 2.6 2.2 1.5 0 2.7-1 2.7-2.2z"/><path fill-rule="evenodd" class="q" d="m41.6 29.9c-1.2 0-2.1-0.7-2.1-1.7 0-1 0.9-1.7 2.1-1.7 1.2 0 2.2 0.7 2.2 1.7 0 1-1 1.7-2.2 1.7zm-0.4-1.7c0 0.2 0.2 0.3 0.4 0.3 0.3 0 0.4-0.1 0.4-0.3 0-0.2-0.1-0.3-0.4-0.3-0.2 0-0.4 0.1-0.4 0.3z"/><path fill-rule="evenodd" class="q" d="m21 31.3c-1.2 0-2.2-0.8-2.2-1.7 0-1 1-1.7 2.2-1.7 1.2 0 2.1 0.7 2.1 1.7 0 0.9-0.9 1.7-2.1 1.7zm0.4-1.7c0-0.2-0.2-0.4-0.4-0.4-0.2 0-0.4 0.2-0.4 0.4 0 0.2 0.2 0.3 0.4 0.3 0.2 0 0.4-0.1 0.4-0.3z"/><path class="q" d="m36.9 41c0-0.4 0.4-0.7 0.8-0.7h0.9v-0.7c0-0.3 0.4-0.7 0.8-0.7 0.5 0 0.9 0.4 0.9 0.7v0.7h0.9c0.4 0 0.8 0.3 0.8 0.7 0 0.4-0.4 0.7-0.8 0.7h-0.9v0.7c0 0.4-0.4 0.7-0.9 0.7-0.4 0-0.8-0.3-0.8-0.7v-0.7h-0.9c-0.4 0-0.8-0.3-0.8-0.7z"/><path class="q" d="m31.8 31.3c0-0.4 0.4-0.7 0.8-0.7h0.9v-0.7c0-0.3 0.3-0.7 0.8-0.7 0.5 0 0.9 0.4 0.9 0.7v0.7h0.8c0.5 0 0.9 0.3 0.9 0.7 0 0.4-0.4 0.7-0.9 0.7h-0.8v0.7c0 0.4-0.4 0.7-0.9 0.7-0.5 0-0.8-0.3-0.8-0.7v-0.7h-0.9c-0.4 0-0.8-0.3-0.8-0.7z"/><path class="q" d="m34.3 18.8c0-0.3 0.4-0.7 0.9-0.7h0.8v-0.6c0-0.4 0.4-0.7 0.9-0.7 0.5 0 0.8 0.3 0.8 0.7v0.6h0.9c0.5 0 0.9 0.4 0.9 0.7 0 0.4-0.4 0.7-0.9 0.7h-0.9v0.7c0 0.4-0.3 0.7-0.8 0.7-0.5 0-0.9-0.3-0.9-0.7v-0.7h-0.8c-0.5 0-0.9-0.3-0.9-0.7z"/></svg>