<?xml version="1.0" standalone="no"?>
<!DOCTYPE svg PUBLIC "-//W3C//DTD SVG 20010904//EN"
 "http://www.w3.org/TR/2001/REC-SVG-20010904/DTD/svg10.dtd">
<svg version="1.0" xmlns="http://www.w3.org/2000/svg"
 width="2501.000000pt" height="797.000000pt" viewBox="0 0 2501.000000 797.000000"
 preserveAspectRatio="xMidYMid meet">

<g transform="translate(0.000000,797.000000) scale(0.100000,-0.100000)"
fill="#000000" stroke="none">
<path d="M11890 7471 c0 -4 -60 -11 -132 -15 -73 -4 -135 -11 -138 -16 -3 -4
-42 -11 -87 -15 -46 -4 -83 -11 -83 -16 0 -5 -13 -9 -30 -9 -16 0 -30 -4 -30
-9 0 -5 -29 -12 -65 -16 -36 -3 -65 -11 -65 -16 0 -5 -9 -9 -20 -9 -11 0 -20
-4 -20 -9 0 -5 -22 -11 -50 -15 -27 -4 -50 -11 -50 -16 0 -6 -11 -10 -25 -10
-14 0 -25 -4 -25 -9 0 -5 -18 -12 -40 -16 -22 -4 -40 -11 -40 -16 0 -5 -9 -9
-20 -9 -11 0 -20 -4 -20 -10 0 -5 -9 -10 -19 -10 -11 0 -26 -7 -35 -15 -8 -8
-22 -15 -30 -15 -9 0 -16 -4 -16 -10 0 -5 -11 -10 -24 -10 -14 0 -31 -7 -40
-15 -8 -8 -22 -15 -30 -15 -9 0 -16 -4 -16 -10 0 -5 -12 -13 -27 -16 -15 -4
-38 -18 -51 -31 -12 -12 -32 -23 -42 -23 -11 0 -20 -4 -20 -10 0 -5 -6 -10
-14 -10 -8 0 -28 -12 -45 -27 -53 -48 -60 -53 -71 -53 -6 0 -17 -6 -26 -12
-35 -30 -73 -63 -88 -75 -9 -7 -18 -13 -21 -13 -9 0 -35 -27 -35 -37 0 -5 -9
-15 -21 -23 -38 -26 -79 -68 -79 -79 0 -6 -4 -11 -8 -11 -11 0 -52 -35 -52
-44 0 -11 -48 -56 -60 -56 -5 0 -10 -6 -10 -13 0 -7 -9 -19 -20 -27 -11 -8
-20 -20 -20 -27 0 -7 -4 -13 -10 -13 -5 0 -10 -6 -10 -13 0 -7 -9 -19 -20 -27
-11 -8 -20 -20 -20 -27 0 -7 -4 -13 -10 -13 -5 0 -10 -9 -10 -20 0 -11 -4 -20
-10 -20 -5 0 -10 -7 -10 -15 0 -8 -4 -15 -10 -15 -5 0 -10 -7 -10 -15 0 -8 -4
-15 -10 -15 -5 0 -10 -7 -10 -15 0 -8 -4 -15 -10 -15 -5 0 -10 -11 -10 -25 0
-14 -4 -25 -10 -25 -5 0 -10 -9 -10 -20 0 -11 -4 -20 -10 -20 -5 0 -10 -11
-10 -25 0 -16 -6 -25 -15 -25 -9 0 -15 -9 -15 -25 0 -14 -4 -25 -10 -25 -5 0
-10 -11 -10 -25 0 -14 -4 -25 -10 -25 -5 0 -10 -11 -10 -25 0 -14 -4 -25 -10
-25 -5 0 -10 -13 -10 -30 0 -16 -4 -30 -10 -30 -5 0 -10 -16 -10 -35 0 -19 -4
-35 -10 -35 -5 0 -10 -18 -10 -40 0 -22 -4 -40 -10 -40 -6 0 -10 -28 -10 -65
0 -37 -4 -65 -10 -65 -6 0 -10 -68 -10 -185 0 -117 4 -185 10 -185 6 0 10 -28
10 -65 0 -37 4 -65 10 -65 6 0 10 -22 10 -50 0 -27 5 -50 10 -50 6 0 10 -13
10 -30 0 -16 5 -30 10 -30 6 0 10 -16 10 -35 0 -19 5 -35 10 -35 6 0 10 -11
10 -25 0 -14 5 -25 10 -25 6 0 10 -11 10 -25 0 -14 5 -25 10 -25 6 0 10 -11
10 -25 0 -16 6 -25 15 -25 8 0 15 -7 15 -15 0 -8 5 -15 10 -15 6 0 10 -11 10
-25 0 -14 5 -25 10 -25 6 0 10 -7 10 -15 0 -8 5 -15 10 -15 6 0 10 -9 10 -20
0 -11 5 -20 10 -20 6 0 10 -7 10 -15 0 -8 5 -15 10 -15 6 0 10 -7 10 -15 0 -8
5 -15 10 -15 6 0 10 -7 10 -15 0 -8 5 -15 10 -15 6 0 10 -9 10 -20 0 -11 5
-20 10 -20 6 0 10 -6 10 -13 0 -7 9 -19 20 -27 11 -8 20 -20 20 -27 0 -7 5
-13 10 -13 6 0 10 -5 10 -11 0 -14 25 -39 39 -39 6 0 11 -5 11 -11 0 -6 14
-24 30 -39 17 -15 30 -32 30 -37 0 -5 9 -15 21 -23 37 -27 59 -47 59 -56 0 -5
10 -16 21 -24 12 -8 32 -25 45 -37 13 -13 27 -23 32 -23 6 0 24 -12 41 -27 16
-16 44 -39 61 -53 17 -14 41 -34 54 -46 12 -11 34 -24 49 -28 15 -3 27 -11 27
-16 0 -6 7 -10 15 -10 8 0 15 -4 15 -10 0 -5 12 -13 27 -16 15 -4 38 -18 51
-31 12 -12 32 -23 42 -23 11 0 20 -4 20 -10 0 -5 12 -13 28 -16 15 -4 34 -15
42 -24 8 -9 33 -20 55 -24 21 -4 46 -16 55 -26 9 -10 33 -21 53 -25 20 -4 37
-11 37 -16 0 -5 9 -9 20 -9 11 0 20 -4 20 -9 0 -6 20 -13 45 -17 25 -3 45 -10
45 -15 0 -5 14 -9 30 -9 17 0 30 -4 30 -10 0 -5 23 -12 50 -16 28 -4 50 -10
50 -15 0 -5 16 -9 35 -9 19 0 35 -4 35 -9 0 -6 32 -13 70 -17 39 -3 70 -11 70
-15 0 -5 18 -9 39 -9 22 0 41 -4 43 -9 2 -5 48 -13 103 -17 55 -4 103 -11 106
-17 9 -14 659 -14 667 0 4 6 58 14 120 18 61 4 112 11 112 16 0 5 18 9 40 9
22 0 40 4 40 9 0 5 34 12 75 16 41 4 75 11 75 16 0 5 14 9 30 9 17 0 30 4 30
10 0 5 23 12 50 16 28 4 50 10 50 15 0 5 9 9 20 9 11 0 20 4 20 9 0 4 24 11
52 14 29 4 54 11 56 17 2 5 12 10 23 10 10 0 19 5 19 10 0 6 9 10 19 10 11 0
26 7 35 15 8 8 22 15 30 15 9 0 16 5 16 10 0 6 11 10 24 10 14 0 31 7 40 15 8
8 22 15 30 15 9 0 16 5 16 10 0 6 8 10 18 10 11 0 29 9 42 20 13 11 30 20 39
20 9 0 23 9 31 20 8 10 27 22 44 26 16 3 40 16 52 28 13 11 35 31 49 43 13 13
31 23 39 23 7 0 28 14 46 30 18 17 36 30 42 30 5 0 19 10 32 23 13 12 33 29
45 37 11 8 21 19 21 25 0 5 13 20 28 33 15 12 38 31 51 42 13 11 28 20 33 20
4 0 8 9 8 19 0 11 9 23 20 26 11 3 20 11 20 16 0 5 7 9 15 9 8 0 15 6 15 13 0
7 9 19 20 27 11 8 20 19 20 25 0 6 9 17 20 25 11 8 20 20 20 27 0 7 5 13 10
13 6 0 10 9 10 19 0 11 9 23 20 26 11 3 20 15 20 26 0 10 5 19 10 19 6 0 10 7
10 15 0 8 5 15 10 15 6 0 10 7 10 15 0 8 5 15 10 15 6 0 10 7 10 15 0 8 5 15
10 15 6 0 10 9 10 20 0 11 7 20 15 20 9 0 15 9 15 25 0 14 5 25 10 25 6 0 10
7 10 15 0 8 5 15 10 15 6 0 10 11 10 25 0 14 5 25 10 25 6 0 10 11 10 25 0 14
5 25 10 25 6 0 10 11 10 25 0 14 5 25 10 25 6 0 10 11 10 25 0 14 5 25 10 25
6 0 10 14 10 30 0 17 5 30 10 30 6 0 10 20 10 45 0 25 5 45 10 45 6 0 10 23
10 50 0 28 5 50 10 50 6 0 10 33 10 80 0 47 4 80 10 80 6 0 10 45 10 115 0 70
-4 115 -10 115 -6 0 -10 35 -10 85 0 50 -4 85 -10 85 -5 0 -10 23 -10 50 0 28
-4 50 -10 50 -5 0 -10 14 -10 30 0 17 -4 30 -10 30 -5 0 -10 16 -10 35 0 19
-4 35 -10 35 -5 0 -10 14 -10 30 0 17 -4 30 -10 30 -5 0 -10 11 -10 25 0 14
-4 25 -10 25 -5 0 -10 11 -10 25 0 14 -4 25 -10 25 -5 0 -10 9 -10 20 0 11 -4
20 -10 20 -5 0 -10 11 -10 25 0 14 -4 25 -10 25 -5 0 -10 7 -10 15 0 8 -7 15
-15 15 -8 0 -15 7 -15 15 0 8 -4 15 -10 15 -5 0 -10 7 -10 15 0 8 -4 15 -10
15 -5 0 -10 9 -10 20 0 11 -4 20 -10 20 -5 0 -10 7 -10 15 0 8 -4 15 -10 15
-5 0 -10 7 -10 15 0 8 -4 15 -10 15 -5 0 -10 9 -10 20 0 11 -4 20 -10 20 -5 0
-10 6 -10 13 0 7 -9 19 -20 27 -11 8 -20 19 -20 25 0 6 -9 17 -20 25 -11 8
-20 18 -20 23 0 12 -27 37 -39 37 -6 0 -11 6 -11 13 0 7 -9 19 -21 27 -36 25
-59 47 -59 55 0 7 -8 14 -73 67 -15 13 -42 35 -58 51 -17 15 -35 27 -41 27 -5
0 -20 10 -33 23 -13 12 -38 33 -55 47 -17 14 -45 37 -61 53 -17 15 -40 27 -50
27 -10 0 -19 4 -19 10 0 5 -11 12 -25 16 -14 3 -25 10 -25 15 0 5 -9 9 -20 9
-11 0 -20 4 -20 10 0 5 -12 13 -27 16 -16 4 -35 15 -43 24 -8 9 -27 20 -42 24
-16 3 -28 11 -28 16 0 6 -9 10 -20 10 -11 0 -20 5 -20 10 0 6 -11 10 -24 10
-14 0 -31 7 -40 15 -8 8 -22 15 -30 15 -9 0 -16 4 -16 9 0 5 -18 12 -40 16
-22 4 -40 11 -40 16 0 5 -9 9 -20 9 -11 0 -20 4 -20 9 0 4 -24 11 -52 14 -29
4 -54 11 -56 17 -2 5 -17 10 -33 10 -16 0 -29 4 -29 10 0 5 -22 12 -50 16 -27
4 -50 10 -50 15 0 5 -20 9 -44 9 -24 0 -46 4 -48 10 -1 5 -37 13 -78 16 -41 4
-77 11 -80 15 -3 4 -60 11 -128 15 -67 4 -122 11 -122 15 0 5 -117 9 -260 9
-143 0 -260 -4 -260 -9z m1520 -1370 c0 -5 27 -12 60 -16 33 -4 60 -11 60 -16
0 -5 7 -9 15 -9 15 0 25 -6 60 -37 7 -7 22 -13 33 -13 19 0 82 -50 82 -65 0
-10 41 -45 52 -45 4 0 8 -9 8 -19 0 -11 9 -23 20 -26 11 -3 20 -15 20 -26 0
-10 5 -19 10 -19 6 0 10 -11 10 -25 0 -14 5 -25 10 -25 6 0 10 -7 10 -15 0 -8
5 -15 10 -15 6 0 10 -16 10 -35 0 -24 5 -35 15 -35 12 0 15 -13 15 -55 0 -30
5 -55 10 -55 6 0 10 -22 10 -50 0 -27 -4 -50 -10 -50 -6 0 -10 -27 -10 -60 0
-47 -3 -60 -15 -60 -10 0 -15 -10 -15 -30 0 -16 -4 -30 -10 -30 -5 0 -10 -7
-10 -15 0 -8 -4 -15 -10 -15 -5 0 -10 -9 -10 -20 0 -11 -4 -20 -10 -20 -5 0
-10 -7 -10 -15 0 -8 -4 -15 -10 -15 -5 0 -10 -5 -10 -11 0 -6 -13 -24 -30 -39
-16 -15 -30 -31 -30 -35 0 -13 -26 -32 -53 -39 -15 -3 -27 -11 -27 -16 0 -6
-7 -10 -15 -10 -8 0 -15 -4 -15 -9 0 -5 -18 -12 -40 -16 -22 -4 -40 -11 -40
-16 0 -5 -9 -9 -19 -9 -11 0 -21 -5 -23 -10 -2 -6 -30 -14 -63 -17 -33 -3 -63
-11 -67 -17 -5 -7 -180 -12 -552 -14 l-546 -4 0 601 0 601 565 0 c329 0 565
-4 565 -9z m-1960 -130 c0 -5 27 -12 60 -16 33 -4 60 -11 60 -16 0 -5 11 -9
25 -9 14 0 25 -4 25 -10 0 -5 12 -13 27 -16 15 -4 37 -17 49 -28 12 -12 31
-28 43 -36 11 -8 21 -19 21 -25 0 -6 9 -17 20 -25 11 -8 20 -20 20 -27 0 -7 5
-13 10 -13 6 0 10 -11 10 -25 0 -14 5 -25 10 -25 6 0 10 -11 10 -25 0 -16 6
-25 15 -25 13 0 15 -22 15 -140 0 -118 -2 -140 -15 -140 -10 0 -15 -11 -15
-35 0 -19 -4 -35 -10 -35 -5 0 -10 -11 -10 -24 0 -16 -7 -27 -20 -31 -11 -3
-20 -15 -20 -26 0 -10 -4 -19 -10 -19 -5 0 -10 -6 -10 -13 0 -7 -10 -19 -21
-27 -12 -8 -31 -24 -43 -36 -12 -11 -34 -24 -49 -28 -15 -3 -27 -11 -27 -16 0
-6 -11 -10 -25 -10 -14 0 -25 -4 -25 -10 0 -5 -22 -12 -50 -16 -27 -4 -50 -10
-50 -15 0 -5 -18 -9 -40 -9 -22 0 -40 -4 -40 -10 0 -7 -147 -10 -420 -10
l-420 0 0 490 0 490 450 0 c261 0 450 -4 450 -9z"/>
<path d="M7660 2472 c0 -5 -55 -12 -122 -15 -70 -4 -124 -11 -126 -17 -2 -5
-21 -10 -43 -10 -21 0 -39 -4 -39 -9 0 -5 -29 -12 -65 -16 -36 -3 -65 -11 -65
-16 0 -5 -9 -9 -20 -9 -11 0 -20 -4 -20 -9 0 -5 -18 -12 -40 -16 -22 -4 -40
-11 -40 -16 0 -5 -9 -9 -20 -9 -11 0 -20 -4 -20 -9 0 -5 -15 -13 -32 -17 -18
-3 -40 -15 -49 -25 -9 -11 -23 -19 -32 -19 -8 0 -29 -12 -46 -27 -16 -16 -44
-39 -61 -53 -17 -14 -37 -31 -45 -37 -7 -7 -18 -13 -23 -13 -13 0 -72 -55 -72
-67 0 -5 -9 -15 -20 -23 -11 -8 -20 -20 -20 -27 0 -7 -4 -13 -10 -13 -5 0 -10
-6 -10 -13 0 -7 -9 -19 -20 -27 -11 -8 -20 -25 -20 -37 0 -13 -4 -23 -10 -23
-5 0 -10 -7 -10 -15 0 -8 -4 -15 -10 -15 -5 0 -10 -11 -10 -25 0 -14 -4 -25
-10 -25 -5 0 -10 -11 -10 -25 0 -16 -6 -25 -15 -25 -10 0 -15 -11 -15 -35 0
-19 -4 -35 -10 -35 -6 0 -10 -28 -10 -65 0 -37 -4 -65 -10 -65 -6 0 -10 -28
-10 -65 0 -37 4 -65 10 -65 6 0 10 -28 10 -65 0 -37 4 -65 10 -65 6 0 10 -16
10 -35 0 -24 5 -35 15 -35 10 0 15 -11 15 -35 0 -19 5 -35 10 -35 6 0 10 -11
10 -25 0 -14 5 -25 10 -25 6 0 10 -7 10 -15 0 -8 5 -15 10 -15 6 0 10 -7 10
-15 0 -8 5 -15 10 -15 6 0 10 -7 10 -15 0 -8 5 -15 10 -15 6 0 10 -9 10 -19 0
-11 9 -23 20 -26 11 -3 20 -15 20 -25 0 -10 9 -22 20 -25 11 -3 20 -15 20 -25
0 -10 9 -22 20 -25 11 -3 20 -11 20 -16 0 -5 5 -9 11 -9 6 0 17 -6 24 -12 8
-7 28 -24 45 -38 17 -14 45 -37 61 -52 17 -16 38 -28 46 -28 8 0 21 -7 29 -15
9 -8 24 -15 35 -15 10 0 19 -4 19 -10 0 -5 7 -10 15 -10 8 0 15 -4 15 -9 0 -5
18 -12 40 -16 22 -4 40 -11 40 -16 0 -5 9 -9 20 -9 11 0 20 -4 20 -10 0 -5 23
-12 50 -16 28 -4 50 -10 50 -15 0 -5 16 -9 35 -9 19 0 35 -4 35 -9 0 -6 32
-13 70 -17 39 -3 70 -11 70 -15 0 -5 34 -9 75 -9 43 0 75 -4 75 -10 0 -6 52
-10 135 -10 83 0 135 4 135 10 0 6 30 10 70 10 39 0 70 4 70 9 0 4 33 11 73
15 39 4 74 11 75 16 2 6 17 10 33 10 16 0 29 4 29 9 0 4 24 11 52 14 29 4 54
11 56 17 2 5 12 10 23 10 10 0 19 4 19 9 0 5 17 12 37 16 20 4 44 15 53 24 8
10 30 22 48 25 17 4 32 12 32 17 0 5 9 9 19 9 10 0 33 12 50 28 16 15 44 38
61 52 17 14 45 37 61 53 17 15 35 27 41 27 12 0 38 26 38 37 0 5 9 15 20 23
11 8 20 20 20 27 0 7 5 13 10 13 6 0 10 9 10 19 0 11 9 23 20 26 11 3 20 13
20 21 0 8 5 14 10 14 6 0 10 11 10 25 0 14 5 25 10 25 6 0 10 9 10 20 0 11 5
20 10 20 6 0 10 11 10 25 0 14 5 25 10 25 6 0 10 14 10 30 0 17 5 30 10 30 6
0 10 20 10 45 0 25 5 45 10 45 6 0 10 58 10 155 0 97 -4 155 -10 155 -5 0 -10
18 -10 40 0 22 -4 40 -10 40 -5 0 -10 16 -10 35 0 19 -4 35 -10 35 -5 0 -10
11 -10 25 0 14 -4 25 -10 25 -5 0 -10 7 -10 15 0 8 -4 15 -10 15 -5 0 -10 10
-10 23 0 12 -9 29 -20 37 -11 8 -20 20 -20 27 0 7 -4 13 -10 13 -5 0 -10 6
-10 13 0 7 -9 19 -20 27 -11 8 -20 18 -20 23 0 13 -45 54 -68 61 -12 4 -22 12
-22 17 0 15 -47 59 -63 59 -8 0 -29 12 -46 28 -54 48 -60 52 -76 52 -8 0 -15
4 -15 10 0 5 -16 12 -35 16 -19 3 -35 10 -35 15 0 5 -9 9 -20 9 -11 0 -20 4
-20 9 0 5 -18 12 -40 16 -22 4 -40 11 -40 16 0 5 -9 9 -20 9 -11 0 -20 4 -20
9 0 5 -29 12 -65 16 -36 3 -65 11 -65 16 0 5 -18 9 -39 9 -22 0 -41 4 -43 10
-1 5 -58 13 -125 16 -68 4 -123 11 -123 16 0 4 -47 8 -105 8 -58 0 -105 -4
-105 -8z m230 -331 c0 -4 42 -11 93 -15 50 -3 94 -11 95 -16 2 -6 17 -10 33
-10 16 0 29 -4 29 -9 0 -5 18 -12 40 -16 22 -4 40 -11 40 -16 0 -5 7 -9 16 -9
8 0 22 -7 30 -15 9 -8 24 -15 35 -15 11 0 31 -10 44 -22 13 -13 38 -34 55 -48
60 -49 90 -78 90 -89 0 -6 5 -11 10 -11 6 0 10 -5 10 -11 0 -14 25 -39 39 -39
6 0 11 -11 11 -25 0 -14 5 -25 10 -25 6 0 10 -11 10 -25 0 -14 5 -25 10 -25 6
0 10 -13 10 -30 0 -16 5 -30 10 -30 6 0 10 -52 10 -135 0 -83 -4 -135 -10
-135 -5 0 -10 -18 -10 -40 0 -22 -4 -40 -10 -40 -5 0 -10 -7 -10 -15 0 -8 -4
-15 -10 -15 -5 0 -10 -11 -10 -25 0 -16 -6 -25 -15 -25 -8 0 -15 -9 -15 -19 0
-11 -9 -23 -20 -26 -11 -3 -20 -15 -20 -25 0 -10 -9 -22 -20 -25 -11 -3 -20
-15 -20 -26 0 -10 -4 -19 -8 -19 -9 0 -40 -23 -84 -62 -16 -16 -39 -28 -50
-28 -12 0 -28 -8 -37 -18 -9 -11 -28 -22 -43 -26 -16 -3 -28 -11 -28 -16 0 -6
-9 -10 -20 -10 -11 0 -20 -4 -20 -10 0 -5 -22 -12 -50 -16 -27 -4 -50 -10 -50
-15 0 -5 -15 -9 -34 -9 -19 0 -36 -6 -38 -12 -6 -18 -440 -18 -445 0 -3 7 -22
12 -49 12 -24 0 -44 4 -44 9 0 5 -22 11 -50 15 -27 4 -50 11 -50 16 0 6 -9 10
-20 10 -11 0 -20 5 -20 10 0 6 -11 10 -24 10 -14 0 -31 7 -40 15 -8 8 -20 15
-26 15 -11 0 -16 3 -66 47 -18 16 -42 35 -54 43 -39 27 -60 47 -60 59 0 6 -5
11 -11 11 -14 0 -39 25 -39 39 0 6 -4 11 -10 11 -5 0 -10 9 -10 20 0 11 -4 20
-10 20 -5 0 -10 11 -10 25 0 14 -4 25 -10 25 -5 0 -10 11 -10 25 0 14 -4 25
-10 25 -5 0 -10 25 -10 55 0 30 -4 55 -10 55 -6 0 -10 28 -10 65 0 37 4 65 10
65 6 0 10 27 10 60 0 33 4 60 10 60 6 0 10 11 10 25 0 14 5 25 10 25 6 0 10
11 10 25 0 14 5 25 10 25 6 0 10 7 10 15 0 8 5 15 10 15 6 0 10 7 10 15 0 8 5
15 10 15 6 0 10 9 10 20 0 11 6 20 13 20 15 0 57 33 57 45 0 12 62 65 77 65 7
0 25 11 39 25 14 14 34 25 44 25 11 0 20 5 20 10 0 6 11 10 25 10 14 0 25 4
25 9 0 5 18 12 40 16 22 4 40 11 40 16 0 5 9 9 19 9 11 0 21 4 23 10 2 5 45
12 96 16 50 4 92 11 92 15 0 5 61 9 135 9 74 0 135 -4 135 -9z"/>
<path d="M14888 2453 c-38 -2 -68 -8 -68 -13 0 -6 -18 -10 -40 -10 -22 0 -40
-4 -40 -9 0 -5 -29 -13 -65 -16 -36 -4 -65 -11 -65 -16 0 -5 -13 -9 -30 -9
-16 0 -30 -4 -30 -10 0 -5 -22 -12 -50 -16 -27 -4 -50 -10 -50 -15 0 -5 -9 -9
-21 -9 -11 0 -27 -7 -35 -15 -9 -8 -24 -15 -35 -15 -10 0 -19 -4 -19 -10 0 -5
-9 -10 -20 -10 -11 0 -20 -4 -20 -10 0 -5 -12 -13 -27 -16 -15 -4 -37 -17 -50
-28 -38 -36 -52 -46 -63 -46 -5 0 -10 -4 -10 -10 0 -5 -8 -10 -18 -10 -20 0
-62 -31 -62 -46 0 -5 -9 -16 -21 -24 -35 -24 -79 -67 -79 -77 0 -5 -9 -15 -20
-23 -11 -8 -20 -20 -20 -27 0 -7 -4 -13 -10 -13 -5 0 -10 -7 -10 -15 0 -8 -7
-15 -15 -15 -8 0 -15 -9 -15 -20 0 -11 -4 -20 -10 -20 -5 0 -10 -7 -10 -15 0
-8 -4 -15 -10 -15 -5 0 -10 -11 -10 -25 0 -14 -4 -25 -10 -25 -5 0 -10 -13
-10 -30 0 -16 -4 -30 -10 -30 -5 0 -10 -16 -10 -35 0 -19 -4 -35 -10 -35 -6 0
-10 -32 -10 -75 0 -43 -4 -75 -10 -75 -5 0 -10 -16 -10 -35 0 -19 5 -35 10
-35 6 0 10 -30 10 -70 0 -40 4 -70 10 -70 6 0 10 -16 10 -35 0 -19 5 -35 10
-35 6 0 10 -16 10 -35 0 -19 5 -35 10 -35 6 0 10 -7 10 -15 0 -8 5 -15 10 -15
6 0 10 -11 10 -25 0 -14 5 -25 10 -25 6 0 10 -7 10 -15 0 -8 7 -15 15 -15 8 0
15 -6 15 -13 0 -7 9 -19 20 -27 11 -8 20 -19 20 -25 0 -6 9 -17 20 -25 11 -8
20 -18 20 -23 0 -9 33 -41 90 -87 17 -14 41 -35 54 -46 12 -12 32 -25 44 -28
12 -4 22 -12 22 -17 0 -5 7 -9 16 -9 8 0 22 -6 29 -13 34 -30 44 -35 76 -42
19 -4 41 -15 49 -25 8 -10 34 -21 58 -25 23 -4 42 -11 42 -16 0 -5 14 -9 30
-9 17 0 30 -4 30 -10 0 -5 23 -12 50 -16 28 -4 50 -10 50 -15 0 -5 20 -9 45
-9 25 0 45 -4 45 -9 0 -5 41 -13 90 -17 50 -3 90 -10 90 -15 0 -5 117 -9 260
-9 143 0 260 4 260 8 0 5 46 12 103 16 56 3 104 11 105 16 2 6 19 10 38 10 19
0 34 4 34 9 0 5 27 12 60 16 33 4 60 11 60 16 0 5 14 9 30 9 17 0 30 4 30 9 0
6 20 13 45 17 25 3 45 10 45 15 0 5 9 9 20 9 11 0 20 4 20 9 0 5 16 12 36 16
20 3 43 13 51 21 8 8 22 14 32 14 9 0 23 9 31 20 8 11 24 20 37 20 12 0 33 11
47 25 14 14 31 25 39 25 8 0 24 8 35 19 22 18 22 22 22 380 l0 361 -411 0
c-342 0 -413 -2 -425 -14 -8 -8 -14 -19 -14 -25 0 -6 -4 -11 -10 -11 -5 0 -10
-9 -10 -20 0 -13 -9 -22 -25 -26 -16 -4 -25 -13 -25 -25 0 -10 -4 -19 -10 -19
-5 0 -10 -7 -10 -15 0 -8 -4 -15 -10 -15 -5 0 -10 -7 -10 -15 0 -8 -4 -15 -10
-15 -5 0 -10 -7 -10 -15 0 -8 -4 -15 -10 -15 -5 0 -10 -4 -10 -10 0 -6 122
-10 345 -10 l345 0 0 -176 c0 -178 -5 -204 -40 -204 -6 0 -18 -7 -26 -15 -9
-8 -26 -15 -40 -15 -13 0 -24 -4 -24 -10 0 -5 -9 -10 -20 -10 -11 0 -20 -4
-20 -9 0 -5 -18 -12 -40 -16 -22 -4 -40 -11 -40 -16 0 -5 -13 -9 -30 -9 -16 0
-30 -4 -30 -9 0 -5 -25 -13 -55 -16 -30 -4 -55 -11 -55 -16 0 -5 -18 -9 -39
-9 -23 0 -41 -5 -43 -12 -4 -10 -83 -13 -353 -13 -270 0 -349 3 -352 13 -3 7
-21 12 -44 12 -21 0 -39 4 -39 9 0 5 -25 12 -55 16 -30 3 -55 11 -55 16 0 5
-9 9 -20 9 -11 0 -20 4 -20 9 0 5 -18 12 -40 16 -22 4 -40 11 -40 16 0 5 -7 9
-16 9 -8 0 -22 7 -30 15 -9 8 -24 15 -35 15 -11 0 -31 10 -44 22 -13 13 -36
33 -52 46 -15 12 -38 30 -50 40 -11 9 -31 24 -42 32 -12 8 -21 20 -21 27 0 7
-4 13 -10 13 -5 0 -10 9 -10 20 0 11 -4 20 -10 20 -5 0 -10 7 -10 15 0 8 -7
15 -15 15 -8 0 -15 7 -15 15 0 8 -4 15 -10 15 -5 0 -10 9 -10 20 0 11 -4 20
-10 20 -5 0 -10 14 -10 30 0 17 -4 30 -10 30 -5 0 -10 23 -10 50 0 28 -4 50
-10 50 -6 0 -10 32 -10 75 0 43 4 75 10 75 6 0 10 23 10 50 0 28 5 50 10 50 6
0 10 11 10 25 0 14 5 25 10 25 6 0 10 11 10 25 0 14 5 25 10 25 6 0 10 7 10
15 0 8 7 15 15 15 8 0 15 6 15 13 0 7 9 19 20 27 11 8 20 18 20 23 0 5 14 22
30 37 17 15 30 32 30 37 0 5 10 15 21 23 12 8 27 21 35 28 7 6 20 12 28 12 9
0 16 4 16 10 0 5 11 12 25 16 14 3 25 10 25 15 0 5 7 9 16 9 8 0 22 7 30 15 9
8 24 15 35 15 10 0 19 5 19 10 0 6 9 10 20 10 11 0 20 4 20 9 0 5 18 12 40 16
22 4 40 10 40 15 0 4 29 11 65 15 36 3 65 11 65 16 0 5 18 9 39 9 23 0 41 5
44 13 3 9 78 12 332 12 254 0 329 -3 333 -12 2 -7 17 -13 33 -13 16 0 29 -4
29 -9 0 -5 29 -13 65 -16 36 -4 65 -11 65 -15 0 -5 18 -11 40 -15 22 -4 40
-11 40 -16 0 -5 9 -9 20 -9 11 0 20 -4 20 -9 0 -5 18 -12 40 -16 22 -4 40 -11
40 -16 0 -5 7 -9 15 -9 8 0 15 -4 15 -10 0 -5 14 -10 30 -10 23 0 30 5 30 19
0 11 9 23 20 26 11 3 20 15 20 26 0 10 5 19 10 19 6 0 10 7 10 15 0 8 5 15 10
15 6 0 10 6 10 13 0 7 9 19 20 27 30 22 26 58 -7 66 -16 4 -35 15 -43 25 -9 9
-33 20 -53 24 -20 4 -37 11 -37 16 0 5 -11 9 -25 9 -14 0 -25 4 -25 10 0 5
-22 12 -50 16 -27 4 -50 10 -50 15 0 5 -9 9 -19 9 -11 0 -21 4 -23 10 -1 5
-36 12 -75 16 -40 4 -73 11 -73 15 0 5 -18 9 -39 9 -22 0 -41 5 -43 11 -4 12
-514 21 -660 12z"/>
<path d="M670 1496 l0 -916 735 0 c404 0 735 4 735 9 0 4 42 11 93 15 50 4 94
11 95 16 2 6 17 10 33 10 16 0 29 4 29 9 0 5 25 13 55 16 30 4 55 11 55 16 0
5 7 9 16 9 8 0 22 7 30 15 9 8 24 15 35 15 10 0 19 5 19 10 0 6 9 10 19 10 11
0 26 7 35 15 8 8 19 15 25 15 6 0 11 4 11 10 0 5 12 13 27 16 15 4 37 17 49
28 12 12 31 28 43 36 11 8 21 18 21 23 0 5 14 22 30 37 17 15 30 31 30 35 0
10 27 35 39 35 6 0 11 7 11 15 0 8 5 15 10 15 6 0 10 7 10 15 0 8 5 15 10 15
6 0 10 7 10 15 0 8 5 15 10 15 6 0 10 9 10 20 0 11 5 20 10 20 6 0 10 11 10
25 0 14 5 25 10 25 6 0 10 14 10 30 0 17 5 30 10 30 6 0 10 16 10 35 0 19 5
35 10 35 6 0 10 27 10 60 0 33 4 60 10 60 6 0 10 42 10 105 0 63 -4 105 -10
105 -6 0 -10 27 -10 60 0 33 -4 60 -10 60 -5 0 -10 14 -10 30 0 17 -4 30 -10
30 -5 0 -10 11 -10 25 0 14 -4 25 -10 25 -5 0 -10 11 -10 25 0 14 -4 25 -10
25 -5 0 -10 11 -10 25 0 14 -4 25 -10 25 -5 0 -10 7 -10 15 0 8 -4 15 -10 15
-5 0 -10 9 -10 20 0 13 -9 22 -25 26 -16 4 -25 13 -25 25 0 10 -4 19 -8 19
-13 0 -52 36 -52 46 0 5 -9 16 -21 24 -12 8 -35 27 -51 43 -17 15 -38 27 -47
27 -9 0 -23 9 -31 20 -8 11 -29 23 -47 26 -18 3 -33 10 -33 15 0 5 -7 9 -16 9
-8 0 -22 7 -30 15 -9 8 -29 15 -45 15 -16 0 -29 5 -29 10 0 6 -9 10 -20 10
-11 0 -20 4 -20 9 0 5 -29 12 -65 16 -36 3 -65 11 -65 16 0 5 -18 9 -39 9 -23
0 -41 5 -43 13 -4 9 -173 13 -791 15 l-787 3 0 -915z m1538 517 c2 -7 17 -13
33 -13 16 0 29 -4 29 -9 0 -5 17 -12 37 -16 20 -4 44 -15 53 -24 8 -10 28 -21
43 -25 28 -7 77 -47 77 -63 0 -5 9 -15 20 -23 11 -8 20 -19 20 -25 0 -6 9 -17
20 -25 11 -8 20 -22 20 -32 0 -10 5 -18 10 -18 6 0 10 -11 10 -25 0 -14 5 -25
10 -25 6 0 10 -20 10 -45 0 -25 5 -45 10 -45 6 0 10 -38 10 -95 0 -57 -4 -95
-10 -95 -5 0 -10 -20 -10 -45 0 -25 -4 -45 -10 -45 -5 0 -10 -13 -10 -30 0
-16 -4 -30 -10 -30 -5 0 -10 -9 -10 -20 0 -11 -4 -20 -10 -20 -5 0 -10 -7 -10
-15 0 -8 -4 -15 -10 -15 -5 0 -10 -5 -10 -11 0 -13 -81 -89 -95 -89 -5 0 -18
-9 -48 -36 -7 -6 -25 -14 -40 -18 -15 -3 -27 -11 -27 -16 0 -6 -9 -10 -19 -10
-11 0 -21 -4 -23 -10 -1 -5 -36 -12 -75 -16 -40 -4 -73 -11 -73 -15 0 -5 -214
-9 -475 -9 l-475 0 0 536 0 535 517 -3 c402 -2 517 -6 521 -15z"/>
<path d="M3580 1800 c0 -400 3 -610 10 -610 6 0 10 -22 10 -50 0 -27 5 -50 10
-50 6 0 10 -13 10 -30 0 -16 5 -30 10 -30 6 0 10 -11 10 -25 0 -14 5 -25 10
-25 6 0 10 -11 10 -25 0 -14 5 -25 10 -25 6 0 10 -9 10 -20 0 -11 7 -20 15
-20 8 0 15 -6 15 -13 0 -7 9 -19 20 -27 11 -8 20 -19 20 -25 0 -6 9 -17 21
-25 12 -8 34 -26 49 -40 15 -14 38 -32 50 -40 13 -8 33 -24 44 -36 12 -12 40
-24 61 -28 22 -4 46 -16 55 -25 8 -10 36 -21 63 -25 26 -4 47 -11 47 -17 0 -5
13 -9 29 -9 16 0 31 -4 33 -10 2 -5 40 -12 86 -16 45 -4 82 -11 82 -15 0 -5
34 -9 75 -9 43 0 75 -4 75 -10 0 -6 58 -10 155 -10 97 0 155 4 155 10 0 6 35
10 85 10 47 0 85 4 85 9 0 4 35 11 78 15 42 3 79 11 80 16 2 6 17 10 33 10 16
0 29 4 29 9 0 4 24 11 52 14 29 4 54 11 56 17 2 5 12 10 23 10 10 0 19 4 19 9
0 5 17 12 38 16 21 3 45 15 52 26 8 10 24 19 35 19 21 0 42 13 95 60 15 14 37
32 49 40 12 8 21 19 21 25 0 6 9 17 20 25 11 8 20 18 20 23 0 12 27 37 39 37
6 0 11 11 11 25 0 14 5 25 10 25 6 0 10 7 10 15 0 8 5 15 10 15 6 0 10 16 10
35 0 19 5 35 10 35 6 0 10 28 10 65 0 37 4 65 10 65 7 0 10 210 10 610 l0 610
-240 0 -240 0 0 -645 c0 -423 -3 -645 -10 -645 -5 0 -10 -11 -10 -24 0 -16 -7
-27 -20 -31 -11 -3 -20 -11 -20 -16 0 -22 -49 -57 -88 -64 -23 -4 -42 -11 -42
-16 0 -5 -9 -9 -19 -9 -11 0 -21 -5 -23 -10 -2 -6 -29 -14 -61 -17 -31 -3 -57
-10 -57 -14 0 -5 -29 -9 -65 -9 -37 0 -65 -4 -65 -10 0 -6 -65 -10 -175 -10
-110 0 -175 4 -175 10 0 6 -32 10 -75 10 -41 0 -75 4 -75 9 0 5 -22 11 -50 15
-27 4 -50 11 -50 16 0 6 -9 10 -20 10 -11 0 -20 5 -20 10 0 6 -6 10 -14 10 -8
0 -28 14 -46 30 -18 17 -36 30 -41 30 -5 0 -9 7 -9 15 0 8 -4 15 -10 15 -5 0
-10 9 -10 20 0 11 -4 20 -10 20 -5 0 -10 11 -10 25 0 14 -4 25 -10 25 -7 0
-10 215 -10 625 l0 625 -240 0 -240 0 0 -610z"/>
<path d="M9793 2404 c-10 -4 -13 -197 -13 -915 l0 -909 750 0 c413 0 750 4
750 9 0 4 42 11 92 14 51 3 94 11 96 17 2 5 17 10 33 10 16 0 29 4 29 9 0 5
25 12 55 16 30 3 55 11 55 16 0 5 9 9 20 9 11 0 20 5 20 10 0 6 9 10 19 10 11
0 26 7 35 15 8 8 21 15 30 15 8 0 26 11 40 25 14 14 34 25 44 25 11 0 33 12
50 28 16 15 39 34 51 42 12 8 21 18 21 23 0 5 14 22 30 37 17 15 30 32 30 37
0 5 9 15 20 23 11 8 20 20 20 27 0 7 5 13 10 13 6 0 10 7 10 15 0 8 5 15 10
15 6 0 10 11 10 25 0 16 6 25 15 25 8 0 15 7 15 15 0 8 5 15 10 15 6 0 10 16
10 35 0 19 5 35 10 35 6 0 10 16 10 35 0 19 5 35 10 35 6 0 10 23 10 50 0 28
5 50 10 50 6 0 10 45 10 115 0 70 -4 115 -10 115 -5 0 -10 23 -10 50 0 28 -4
50 -10 50 -5 0 -10 18 -10 40 0 22 -4 40 -10 40 -5 0 -10 11 -10 25 0 14 -4
25 -10 25 -5 0 -10 11 -10 25 0 16 -6 25 -15 25 -8 0 -15 7 -15 15 0 8 -4 15
-10 15 -5 0 -10 7 -10 15 0 8 -4 15 -10 15 -5 0 -10 9 -10 20 0 11 -4 20 -10
20 -5 0 -10 6 -10 13 0 7 -9 19 -20 27 -11 8 -20 19 -20 25 0 6 -9 17 -20 25
-11 8 -20 19 -20 24 0 9 -23 31 -60 56 -12 8 -28 21 -36 28 -7 6 -15 12 -19
12 -6 0 -16 8 -65 51 -18 16 -39 29 -47 29 -9 0 -23 8 -32 18 -9 11 -28 22
-43 26 -16 3 -28 11 -28 16 0 6 -11 10 -25 10 -14 0 -25 4 -25 9 0 5 -27 12
-60 16 -33 4 -60 11 -60 16 0 5 -18 9 -39 9 -23 0 -41 5 -43 13 -4 9 -173 12
-794 14 -434 1 -795 0 -801 -3z m1575 -260 c4 -6 28 -14 55 -18 26 -4 47 -11
47 -17 0 -5 9 -9 20 -9 11 0 20 -4 20 -10 0 -5 9 -10 20 -10 10 0 30 -11 44
-25 14 -14 29 -25 34 -25 6 0 24 -12 41 -27 16 -16 44 -39 60 -53 17 -14 31
-30 31 -35 0 -6 9 -17 20 -25 11 -8 20 -20 20 -27 0 -7 5 -13 10 -13 6 0 10
-7 10 -15 0 -8 5 -15 10 -15 6 0 10 -9 10 -20 0 -11 5 -20 10 -20 6 0 10 -9
10 -20 0 -11 7 -20 15 -20 9 0 15 -9 15 -25 0 -14 5 -25 10 -25 6 0 10 -20 10
-45 0 -25 5 -45 10 -45 6 0 10 -50 10 -130 0 -80 -4 -130 -10 -130 -5 0 -10
-18 -10 -40 0 -22 -4 -40 -10 -40 -5 0 -10 -11 -10 -25 0 -16 -6 -25 -15 -25
-8 0 -15 -9 -15 -20 0 -11 -4 -20 -10 -20 -5 0 -10 -7 -10 -15 0 -8 -4 -15
-10 -15 -5 0 -10 -7 -10 -15 0 -8 -4 -15 -10 -15 -5 0 -10 -9 -10 -20 0 -11
-4 -20 -8 -20 -12 0 -52 -35 -52 -45 0 -13 -42 -45 -59 -45 -9 0 -23 -9 -31
-20 -8 -11 -29 -23 -47 -26 -18 -3 -33 -10 -33 -15 0 -5 -9 -9 -20 -9 -11 0
-20 -4 -20 -9 0 -5 -18 -12 -40 -16 -22 -4 -40 -11 -40 -16 0 -5 -13 -9 -29
-9 -16 0 -31 -6 -33 -12 -4 -10 -142 -14 -636 -16 l-632 -3 0 666 0 667 630
-3 c445 -3 633 -7 638 -15z"/>
<path d="M12923 2403 c-10 -4 -13 -196 -13 -914 l0 -909 155 0 155 0 0 915 0
915 -142 -1 c-79 0 -149 -3 -155 -6z"/>
<path d="M16970 1495 l0 -915 155 0 155 0 0 915 0 915 -155 0 -155 0 0 -915z"/>
<path d="M17728 2403 c-16 -4 -18 -19 -18 -124 l0 -119 470 0 470 0 0 -790 0
-790 145 0 145 0 0 790 0 790 405 0 c263 0 405 3 405 10 0 6 7 10 15 10 8 0
15 7 15 15 0 8 5 15 10 15 6 0 10 9 10 19 0 11 9 23 20 26 11 3 20 15 20 26 0
10 5 19 10 19 6 0 10 7 10 15 0 8 5 15 10 15 6 0 10 5 10 11 0 7 10 20 22 31
19 16 20 21 8 28 -15 10 -2147 12 -2182 3z"/>
<path d="M20933 2403 c-7 -2 -13 -13 -13 -24 0 -10 -4 -19 -10 -19 -5 0 -10
-6 -10 -13 0 -7 -9 -19 -20 -27 -11 -8 -20 -20 -20 -27 0 -7 -4 -13 -10 -13
-5 0 -10 -7 -10 -15 0 -8 -4 -15 -10 -15 -5 0 -10 -9 -10 -20 0 -13 -9 -22
-25 -26 -16 -4 -25 -13 -25 -25 0 -10 -4 -19 -10 -19 -5 0 -10 -7 -10 -15 0
-8 -4 -15 -10 -15 -5 0 -10 -6 -10 -13 0 -7 -9 -19 -20 -27 -11 -8 -20 -20
-20 -27 0 -7 -4 -13 -10 -13 -5 0 -10 -7 -10 -15 0 -8 -4 -15 -10 -15 -5 0
-10 -9 -10 -19 0 -11 -9 -23 -20 -26 -11 -3 -20 -15 -20 -26 0 -10 -4 -19 -10
-19 -5 0 -10 -7 -10 -15 0 -8 -4 -15 -10 -15 -5 0 -10 -5 -10 -11 0 -14 -25
-39 -39 -39 -6 0 -11 -7 -11 -15 0 -8 -4 -15 -10 -15 -5 0 -10 -9 -10 -20 0
-11 -4 -20 -10 -20 -5 0 -10 -6 -10 -14 0 -8 -9 -18 -20 -21 -11 -3 -20 -15
-20 -26 0 -10 -4 -19 -10 -19 -5 0 -10 -7 -10 -15 0 -8 -4 -15 -10 -15 -5 0
-10 -6 -10 -13 0 -7 -9 -19 -20 -27 -11 -8 -20 -20 -20 -27 0 -7 -4 -13 -10
-13 -5 0 -10 -9 -10 -20 0 -11 -4 -20 -10 -20 -5 0 -10 -5 -10 -11 0 -14 -25
-39 -39 -39 -6 0 -11 -7 -11 -15 0 -8 -4 -15 -10 -15 -5 0 -10 -7 -10 -15 0
-8 -4 -15 -10 -15 -5 0 -10 -6 -10 -13 0 -7 -9 -19 -20 -27 -11 -8 -20 -20
-20 -27 0 -7 -4 -13 -10 -13 -5 0 -10 -9 -10 -20 0 -11 -4 -20 -10 -20 -5 0
-10 -7 -10 -15 0 -8 -4 -15 -10 -15 -5 0 -10 -6 -10 -13 0 -7 -9 -19 -20 -27
-11 -8 -20 -20 -20 -27 0 -7 -4 -13 -10 -13 -5 0 -10 -9 -10 -20 0 -11 -4 -20
-10 -20 -5 0 -10 -7 -10 -15 0 -8 -5 -15 -11 -15 -14 0 -39 -25 -39 -39 0 -6
-4 -11 -10 -11 -5 0 -10 -7 -10 -15 0 -8 -4 -15 -10 -15 -5 0 -10 -6 -10 -13
0 -7 -9 -19 -20 -27 -11 -8 -20 -20 -20 -27 0 -7 -4 -13 -10 -13 -5 0 -10 -9
-10 -20 0 -11 -4 -20 -10 -20 -5 0 -10 -6 -10 -13 0 -7 -9 -19 -20 -27 -11 -8
-20 -20 -20 -27 0 -7 -4 -13 -10 -13 -5 0 -10 -7 -10 -15 0 -8 -4 -15 -10 -15
-5 0 -10 -9 -10 -20 0 -13 -9 -22 -25 -26 -16 -4 -25 -13 -25 -25 0 -10 -4
-19 -10 -19 -5 0 -10 -7 -10 -15 0 -8 -4 -15 -10 -15 -5 0 -10 -6 -10 -13 0
-7 -9 -19 -20 -27 -11 -8 -20 -20 -20 -27 0 -7 -4 -13 -10 -13 -5 0 -10 -7
-10 -15 0 -8 -4 -15 -10 -15 -5 0 -10 -4 -10 -10 0 -6 62 -10 165 -10 127 0
165 3 165 13 0 7 9 19 20 27 11 8 20 20 20 27 0 7 5 13 10 13 6 0 10 9 10 20
0 11 7 20 15 20 8 0 15 7 15 15 0 8 5 15 10 15 6 0 10 6 10 13 0 7 9 19 20 27
11 8 20 20 20 27 0 7 5 13 10 13 6 0 10 7 10 15 0 8 5 15 10 15 6 0 10 9 10
19 0 11 9 23 20 26 11 3 20 15 20 26 0 10 5 19 10 19 6 0 10 7 10 15 0 8 5 15
10 15 6 0 10 5 10 10 0 6 11 22 25 35 l24 25 801 0 c793 0 800 0 800 -20 0
-11 5 -20 10 -20 6 0 10 -7 10 -15 0 -8 5 -15 10 -15 6 0 10 -6 10 -13 0 -7 9
-19 20 -27 11 -8 20 -20 20 -27 0 -7 5 -13 10 -13 6 0 10 -9 10 -20 0 -11 5
-20 10 -20 6 0 10 -7 10 -15 0 -8 5 -15 10 -15 6 0 10 -6 10 -13 0 -7 9 -19
20 -27 11 -8 20 -20 20 -27 0 -7 7 -13 15 -13 8 0 15 -7 15 -15 0 -8 5 -15 10
-15 6 0 10 -9 10 -20 0 -11 5 -20 10 -20 6 0 10 -6 10 -13 0 -7 9 -19 20 -27
11 -8 20 -20 20 -27 0 -10 38 -13 165 -13 103 0 165 4 165 10 0 6 -4 10 -10
10 -5 0 -10 7 -10 15 0 8 -4 15 -10 15 -5 0 -10 6 -10 13 0 7 -9 19 -20 27
-11 8 -20 20 -20 27 0 7 -4 13 -10 13 -5 0 -10 7 -10 15 0 8 -4 15 -10 15 -5
0 -10 9 -10 20 0 11 -4 20 -10 20 -5 0 -10 5 -10 11 0 14 -25 39 -39 39 -6 0
-11 7 -11 15 0 8 -4 15 -10 15 -5 0 -10 7 -10 15 0 8 -4 15 -10 15 -5 0 -10 9
-10 20 0 11 -4 20 -10 20 -5 0 -10 6 -10 13 0 7 -9 19 -20 27 -11 8 -20 20
-20 27 0 7 -4 13 -10 13 -5 0 -10 7 -10 15 0 8 -4 15 -10 15 -5 0 -10 6 -10
13 0 7 -9 19 -20 27 -11 8 -20 20 -20 27 0 7 -4 13 -10 13 -5 0 -10 9 -10 20
0 11 -4 20 -10 20 -5 0 -10 7 -10 15 0 8 -7 15 -15 15 -8 0 -15 6 -15 13 0 7
-9 19 -20 27 -11 8 -20 20 -20 27 0 7 -4 13 -10 13 -5 0 -10 9 -10 20 0 11 -4
20 -10 20 -5 0 -10 7 -10 15 0 8 -4 15 -10 15 -5 0 -10 6 -10 13 0 7 -9 19
-20 27 -11 8 -20 20 -20 27 0 7 -4 13 -10 13 -5 0 -10 7 -10 15 0 8 -4 15 -10
15 -5 0 -10 9 -10 19 0 11 -9 23 -20 26 -11 3 -20 15 -20 26 0 10 -4 19 -10
19 -5 0 -10 7 -10 15 0 8 -7 15 -15 15 -8 0 -15 7 -15 15 0 8 -4 15 -10 15 -5
0 -10 9 -10 19 0 11 -9 23 -20 26 -11 3 -20 15 -20 26 0 10 -4 19 -10 19 -5 0
-10 7 -10 15 0 8 -4 15 -10 15 -5 0 -10 6 -10 13 0 7 -9 19 -20 27 -11 8 -20
20 -20 27 0 7 -4 13 -10 13 -5 0 -10 7 -10 15 0 8 -4 15 -10 15 -5 0 -10 9
-10 20 0 11 -4 20 -10 20 -5 0 -10 5 -10 11 0 14 -25 39 -39 39 -6 0 -11 7
-11 15 0 8 -4 15 -10 15 -5 0 -10 7 -10 15 0 8 -4 15 -10 15 -5 0 -10 9 -10
20 0 11 -4 20 -10 20 -5 0 -10 6 -10 13 0 7 -9 19 -20 27 -11 8 -20 20 -20 27
0 7 -4 13 -10 13 -5 0 -10 7 -10 15 0 8 -4 15 -10 15 -5 0 -10 6 -10 13 0 7
-9 19 -20 27 -11 8 -20 20 -20 27 0 7 -4 13 -10 13 -5 0 -10 9 -10 20 0 11 -4
20 -10 20 -5 0 -10 7 -10 15 0 8 -7 15 -15 15 -8 0 -15 6 -15 13 0 7 -9 19
-20 27 -11 8 -20 20 -20 27 0 7 -4 13 -10 13 -5 0 -10 9 -10 19 0 10 -7 22
-16 25 -19 7 -263 7 -281 -1z m161 -279 c9 -3 16 -15 16 -25 0 -10 5 -19 10
-19 6 0 10 -7 10 -15 0 -8 5 -15 10 -15 6 0 10 -6 10 -13 0 -7 9 -19 20 -27
11 -8 20 -20 20 -27 0 -7 5 -13 10 -13 6 0 10 -9 10 -20 0 -11 5 -20 10 -20 6
0 10 -6 10 -13 0 -7 9 -19 20 -27 11 -8 20 -20 20 -27 0 -7 5 -13 10 -13 6 0
10 -7 10 -15 0 -8 7 -15 15 -15 8 0 15 -9 15 -20 0 -11 5 -20 10 -20 6 0 10
-6 10 -14 0 -8 9 -18 20 -21 11 -3 20 -15 20 -26 0 -10 5 -19 10 -19 6 0 10
-7 10 -15 0 -8 5 -15 10 -15 6 0 10 -7 10 -15 0 -8 5 -15 10 -15 6 0 10 -9 10
-19 0 -11 9 -23 20 -26 11 -3 20 -15 20 -26 0 -10 5 -19 10 -19 6 0 10 -7 10
-15 0 -8 5 -15 10 -15 6 0 10 -5 10 -11 0 -14 25 -39 39 -39 6 0 11 -7 11 -15
0 -8 5 -15 10 -15 6 0 10 -7 10 -15 0 -8 5 -15 10 -15 6 0 10 -9 10 -20 0 -11
5 -20 10 -20 6 0 10 -6 10 -13 0 -7 9 -19 20 -27 11 -8 20 -25 20 -37 l0 -23
-605 0 c-598 0 -605 0 -605 20 0 11 5 20 10 20 6 0 10 6 10 13 0 7 9 19 20 27
11 8 20 20 20 27 0 7 7 13 15 13 8 0 15 7 15 15 0 8 5 15 10 15 6 0 10 6 10
13 0 7 9 19 20 27 11 8 20 20 20 27 0 7 5 13 10 13 6 0 10 9 10 20 0 11 5 20
10 20 6 0 10 6 10 13 0 7 9 19 20 27 11 8 20 20 20 27 0 7 5 13 10 13 6 0 10
7 10 15 0 8 5 15 10 15 6 0 10 9 10 20 0 11 5 20 10 20 6 0 10 5 10 11 0 14
25 39 39 39 6 0 11 7 11 15 0 8 5 15 10 15 6 0 10 7 10 15 0 8 5 15 10 15 6 0
10 6 10 13 0 7 9 19 20 27 11 8 20 20 20 27 0 7 5 13 10 13 6 0 10 9 10 20 0
11 5 20 10 20 6 0 10 6 10 13 0 7 9 19 20 27 11 8 20 20 20 27 0 7 5 13 10 13
6 0 10 7 10 15 0 8 5 15 10 15 6 0 10 9 10 19 0 11 9 23 20 26 11 3 20 15 20
25 0 10 8 21 18 23 9 3 18 5 19 6 1 0 8 -2 17 -5z"/>
<path d="M22980 1495 l0 -915 905 0 905 0 0 111 c0 82 -4 114 -14 125 -12 12
-126 14 -750 14 l-736 0 0 784 c0 706 -2 784 -16 790 -9 3 -78 6 -155 6 l-139
0 0 -915z"/>
</g>
</svg>
