<svg version="1.2" xmlns="http://www.w3.org/2000/svg" viewBox="0 0 150 150" width="150" height="150"><style>.a{fill:#8e9093}.b{fill:#808080}.c{fill:#a47c50}.d{fill:#865e3c}.e{fill:#754c29}.f{fill:#8a623f}.g{fill:#e1e2e3}.h{fill:#cccecf}.i{fill:#3f2e27}</style><path fill-rule="evenodd" class="a" d="m79.2 31.2c14.1 12.7 13.8 33.5-0.6 46.5q-0.1 0.1-0.1 0.1c-14.4 12.9-37.5 13.1-51.5 0.5-14.1-12.7-13.8-33.5 0.6-46.5 14.4-13 37.5-13.2 51.6-0.6zm-5.7 42c11.6-10.4 11.8-27.1 0.6-37.3-11.3-10.2-29.9-10-41.5 0.5-11.5 10.4-11.8 27.1-0.5 37.2 11.3 10.2 29.9 10 41.4-0.4z"/><path class="b" d="m16.9 59.7c-1.4-9.9 2.2-20.2 10.7-27.9 14.4-13 37.5-13.2 51.6-0.6 8.1 7.3 11.4 17.2 10.1 26.8-0.9-6.8-4.3-13.4-10.1-18.6q-2.9-2.6-6.3-4.5c-11.1-9-28.4-8.6-39.6 0.9q-3 1.8-5.7 4.2c-6.2 5.5-9.7 12.5-10.7 19.7z"/><path class="c" d="m134.1 122.6q-0.1 0.8-0.3 1.4c-0.3 0.8-0.8 1.6-1.5 2.2-0.8 0.7-1.6 1.2-2.6 1.4q-0.7 0.2-1.4 0.2c-1.4 0-2.7-0.4-3.7-1.2l-0.8-0.7c-0.8-0.9-1.3-2.1-1.3-3.3 0-2.9 2.6-5.2 5.8-5.2 3.2 0 5.8 2.3 5.8 5.2z"/><path class="d" d="m86.8 85.3l2.9-2.6c0.7-0.7 1.8-0.7 2.5 0l40.7 36.7c1.3 1.2 1.6 3 0.9 4.6q0.2-0.6 0.3-1.4c0-2.9-2.6-5.2-5.8-5.2-3.2 0-5.8 2.3-5.8 5.2 0 1.2 0.5 2.4 1.3 3.3l-39.8-35.9c-0.6-0.6-0.6-1.6 0-2.2z"/><path class="e" d="m132.4 119c-1-1-2.5-1.6-4.1-1.6-1 0-1.9 0.2-2.8 0.6l-37-33.4q-0.2-0.2-0.6-0.4l1.8-1.5c0.7-0.7 1.8-0.7 2.5 0l40.3 36.3"/><path class="e" d="m132.9 119.4l-0.4-0.4"/><path class="f" d="m133.6 120.6q0.4 0.9 0.5 2-0.1 0.8-0.3 1.4c-0.3 0.8-0.8 1.6-1.5 2.2-0.8 0.7-1.6 1.2-2.6 1.4q-0.7 0.2-1.4 0.2c-1.4 0-2.7-0.4-3.7-1.2l-0.8-0.7c-0.8-0.9-1.3-2.1-1.3-3.3q0-1.1 0.4-2 0.4 0.7 0.9 1.3l0.8 0.7c1 0.8 2.3 1.2 3.7 1.2q0.7 0 1.4-0.2c1-0.2 1.8-0.7 2.6-1.4q0.8-0.8 1.3-1.6z"/><path class="g" d="m74.1 35.9c11.2 10.2 11 26.9-0.6 37.3-11.5 10.4-30.1 10.6-41.4 0.4-11.3-10.1-11-26.8 0.5-37.2 11.6-10.5 30.2-10.7 41.5-0.5z"/><path class="h" d="m32.4 73.8q-0.1-0.1-0.3-0.2c-11.3-10.1-11-26.8 0.5-37.2 11.6-10.5 30.2-10.7 41.5-0.5 3.3 3 5.6 6.6 6.9 10.4-11.3-10-29.6-9.7-41.1 0.6-8.2 7.4-10.7 17.8-7.5 26.9z"/><path fill-rule="evenodd" class="i" d="m134.7 124.3q0 0 0 0 0 0 0 0 0 0 0 0c-0.7 2-2.5 3.5-4.7 4.1q0 0 0 0 0 0 0 0 0 0 0 0-0.1 0-0.1 0-0.9 0.3-1.9 0.3c-1.5 0-2.9-0.5-3.9-1.4l-0.1-0.1q-0.5-0.4-0.9-0.8l-39.7-35.8c-1-0.9-1-2.5 0-3.4l2.1-1.9-7-6.4c-7.4 6.3-16.9 9.5-26.3 9.5-9.4 0-18.8-3.2-25.9-9.6-14.4-12.9-14.1-34.3 0.7-47.5 7.1-6.5 16.5-10.1 26.5-10.2 10-0.1 19.4 3.3 26.3 9.6 7 6.3 10.8 14.7 10.7 23.7-0.1 8.7-3.9 17-10.8 23.4l7.1 6.3 2.3-2c0.5-0.5 1.1-0.7 1.9-0.7q0 0 0 0c0.7 0 1.3 0.2 1.8 0.7l40.7 36.7c1.5 1.4 2 3.4 1.2 5.4q0 0 0 0.1zm-1.7-0.5q0.2-0.6 0.2-1.2c0-2.4-2.2-4.4-4.9-4.4-2.7 0-4.9 2-4.9 4.4 0 1 0.4 2 1 2.7l0.8 0.7c0.9 0.7 2 1 3.1 1q0.6 0 1.2-0.1 1.2-0.4 2.2-1.3c0.6-0.5 1-1.1 1.3-1.8zm-55.1-46.6q0 0 0 0 0 0 0 0 0 0 0.1 0v-0.1c6.8-6.1 10.6-14.2 10.7-22.7 0.1-8.6-3.5-16.6-10.1-22.6-6.5-5.9-15.3-9.1-24.6-9.1q-0.2 0-0.5 0c-9.5 0.1-18.5 3.6-25.3 9.7-14 12.6-14.3 33-0.6 45.3 13.7 12.3 36.2 12.1 50.3-0.5zm6.8 12.3l36.9 33.3q0-0.1 0-0.2c0-3.3 3-6 6.7-6q0.1 0 0.3 0l-37-33.4q-0.3-0.2-0.6-0.2-0.4 0-0.7 0.2l-2.9 2.6-2.7 2.5c-0.4 0.3-0.4 0.8 0 1.2z"/><path class="i" d="m42.3 38.9c0.3 0.4 0.2 0.9-0.2 1.2q-1.6 0.9-3 2.2c-5.3 4.7-7.2 11.6-5.1 18 0.1 0.5-0.2 0.9-0.6 1q-0.2 0.1-0.3 0.1c-0.4 0-0.7-0.3-0.8-0.6-2.3-7-0.2-14.5 5.5-19.6q1.5-1.4 3.3-2.5c0.4-0.2 0.9-0.1 1.2 0.2z"/><path class="i" d="m39 68.1c0.4 0.3 0.4 0.8 0 1.1q-0.2 0.3-0.6 0.3-0.3 0-0.6-0.3-2.3-2-3.8-4.5c-0.2-0.4 0-0.9 0.4-1.1 0.4-0.2 1-0.1 1.2 0.3q1.4 2.3 3.4 4.2z"/><path fill-rule="evenodd" class="i" d="m74.2 73.7c-6.1 5.5-14 8.2-21.8 8.2-7.6 0-15.2-2.6-20.9-7.7-11.6-10.5-11.4-27.7 0.5-38.4 11.9-10.7 31.1-10.9 42.7-0.5 5.6 5.1 8.7 11.9 8.6 19.2-0.1 7.2-3.4 14-9.1 19.2zm-1.3-1.1c5.4-4.9 8.5-11.3 8.6-18.2 0.1-6.8-2.8-13.2-8.1-17.9-5.4-4.9-12.4-7.3-19.6-7.3-7.4 0-14.8 2.6-20.5 7.7-11.2 10.1-11.5 26.3-0.5 36.2 10.9 9.8 28.9 9.6 40.1-0.5z"/></svg>