<svg id="visual" viewBox="0 0 1300 1200" width="1300" height="1200" xmlns="http://www.w3.org/2000/svg" xmlns:xlink="http://www.w3.org/1999/xlink" version="1.1"><path d="M0 109L68 109L68 109L137 109L137 97L205 97L205 49L274 49L274 61L342 61L342 49L411 49L411 49L479 49L479 49L547 49L547 61L616 61L616 73L684 73L684 61L753 61L753 85L821 85L821 73L889 73L889 85L958 85L958 109L1026 109L1026 49L1095 49L1095 85L1163 85L1163 109L1232 109L1232 49L1300 49L1300 49L1300 0L1300 0L1232 0L1232 0L1163 0L1163 0L1095 0L1095 0L1026 0L1026 0L958 0L958 0L889 0L889 0L821 0L821 0L753 0L753 0L684 0L684 0L616 0L616 0L547 0L547 0L479 0L479 0L411 0L411 0L342 0L342 0L274 0L274 0L205 0L205 0L137 0L137 0L68 0L68 0L0 0Z" fill="#ffffff"></path><path d="M0 169L68 169L68 229L137 229L137 229L205 229L205 121L274 121L274 145L342 145L342 157L411 157L411 181L479 181L479 133L547 133L547 145L616 145L616 205L684 205L684 193L753 193L753 193L821 193L821 157L889 157L889 145L958 145L958 169L1026 169L1026 109L1095 109L1095 157L1163 157L1163 229L1232 229L1232 157L1300 157L1300 121L1300 47L1300 47L1232 47L1232 107L1163 107L1163 83L1095 83L1095 47L1026 47L1026 107L958 107L958 83L889 83L889 71L821 71L821 83L753 83L753 59L684 59L684 71L616 71L616 59L547 59L547 47L479 47L479 47L411 47L411 47L342 47L342 59L274 59L274 47L205 47L205 95L137 95L137 107L68 107L68 107L0 107Z" fill="#d6d6d6"></path><path d="M0 241L68 241L68 313L137 313L137 313L205 313L205 229L274 229L274 313L342 313L342 313L411 313L411 325L479 325L479 241L547 241L547 241L616 241L616 385L684 385L684 289L753 289L753 277L821 277L821 289L889 289L889 241L958 241L958 313L1026 313L1026 289L1095 289L1095 349L1163 349L1163 325L1232 325L1232 325L1300 325L1300 229L1300 119L1300 155L1232 155L1232 227L1163 227L1163 155L1095 155L1095 107L1026 107L1026 167L958 167L958 143L889 143L889 155L821 155L821 191L753 191L753 191L684 191L684 203L616 203L616 143L547 143L547 131L479 131L479 179L411 179L411 155L342 155L342 143L274 143L274 119L205 119L205 227L137 227L137 227L68 227L68 167L0 167Z" fill="#afafaf"></path><path d="M0 349L68 349L68 409L137 409L137 361L205 361L205 301L274 301L274 421L342 421L342 421L411 421L411 397L479 397L479 313L547 313L547 361L616 361L616 457L684 457L684 373L753 373L753 325L821 325L821 349L889 349L889 313L958 313L958 361L1026 361L1026 337L1095 337L1095 445L1163 445L1163 421L1232 421L1232 421L1300 421L1300 313L1300 227L1300 323L1232 323L1232 323L1163 323L1163 347L1095 347L1095 287L1026 287L1026 311L958 311L958 239L889 239L889 287L821 287L821 275L753 275L753 287L684 287L684 383L616 383L616 239L547 239L547 239L479 239L479 323L411 323L411 311L342 311L342 311L274 311L274 227L205 227L205 311L137 311L137 311L68 311L68 239L0 239Z" fill="#898989"></path><path d="M0 637L68 637L68 637L137 637L137 649L205 649L205 649L274 649L274 697L342 697L342 721L411 721L411 697L479 697L479 625L547 625L547 673L616 673L616 769L684 769L684 613L753 613L753 517L821 517L821 649L889 649L889 565L958 565L958 577L1026 577L1026 721L1095 721L1095 625L1163 625L1163 733L1232 733L1232 697L1300 697L1300 745L1300 311L1300 419L1232 419L1232 419L1163 419L1163 443L1095 443L1095 335L1026 335L1026 359L958 359L958 311L889 311L889 347L821 347L821 323L753 323L753 371L684 371L684 455L616 455L616 359L547 359L547 311L479 311L479 395L411 395L411 419L342 419L342 419L274 419L274 299L205 299L205 359L137 359L137 407L68 407L68 347L0 347Z" fill="#656565"></path><path d="M0 745L68 745L68 697L137 697L137 769L205 769L205 781L274 781L274 805L342 805L342 781L411 781L411 757L479 757L479 781L547 781L547 805L616 805L616 841L684 841L684 673L753 673L753 649L821 649L821 793L889 793L889 697L958 697L958 673L1026 673L1026 877L1095 877L1095 697L1163 697L1163 865L1232 865L1232 817L1300 817L1300 877L1300 743L1300 695L1232 695L1232 731L1163 731L1163 623L1095 623L1095 719L1026 719L1026 575L958 575L958 563L889 563L889 647L821 647L821 515L753 515L753 611L684 611L684 767L616 767L616 671L547 671L547 623L479 623L479 695L411 695L411 719L342 719L342 695L274 695L274 647L205 647L205 647L137 647L137 635L68 635L68 635L0 635Z" fill="#434343"></path><path d="M0 925L68 925L68 913L137 913L137 1009L205 1009L205 1021L274 1021L274 937L342 937L342 889L411 889L411 973L479 973L479 1009L547 1009L547 925L616 925L616 1057L684 1057L684 853L753 853L753 841L821 841L821 997L889 997L889 877L958 877L958 829L1026 829L1026 1021L1095 1021L1095 877L1163 877L1163 1021L1232 1021L1232 961L1300 961L1300 985L1300 875L1300 815L1232 815L1232 863L1163 863L1163 695L1095 695L1095 875L1026 875L1026 671L958 671L958 695L889 695L889 791L821 791L821 647L753 647L753 671L684 671L684 839L616 839L616 803L547 803L547 779L479 779L479 755L411 755L411 779L342 779L342 803L274 803L274 779L205 779L205 767L137 767L137 695L68 695L68 743L0 743Z" fill="#242424"></path><path d="M0 1201L68 1201L68 1201L137 1201L137 1201L205 1201L205 1201L274 1201L274 1201L342 1201L342 1201L411 1201L411 1201L479 1201L479 1201L547 1201L547 1201L616 1201L616 1201L684 1201L684 1201L753 1201L753 1201L821 1201L821 1201L889 1201L889 1201L958 1201L958 1201L1026 1201L1026 1201L1095 1201L1095 1201L1163 1201L1163 1201L1232 1201L1232 1201L1300 1201L1300 1201L1300 983L1300 959L1232 959L1232 1019L1163 1019L1163 875L1095 875L1095 1019L1026 1019L1026 827L958 827L958 875L889 875L889 995L821 995L821 839L753 839L753 851L684 851L684 1055L616 1055L616 923L547 923L547 1007L479 1007L479 971L411 971L411 887L342 887L342 935L274 935L274 1019L205 1019L205 1007L137 1007L137 911L68 911L68 923L0 923Z" fill="#000000"></path></svg>